%TF.GenerationSoftware,KiCad,Pcbnew,6.0.4+dfsg-1*%
%TF.CreationDate,2022-04-12T11:54:30+09:30*%
%TF.ProjectId,6530 to 6532 adaptor,36353330-2074-46f2-9036-353332206164,rev?*%
%TF.SameCoordinates,Original*%
%TF.FileFunction,Soldermask,Top*%
%TF.FilePolarity,Negative*%
%FSLAX46Y46*%
G04 Gerber Fmt 4.6, Leading zero omitted, Abs format (unit mm)*
G04 Created by KiCad (PCBNEW 6.0.4+dfsg-1) date 2022-04-12 11:54:30*
%MOMM*%
%LPD*%
G01*
G04 APERTURE LIST*
%ADD10C,1.600000*%
%ADD11O,1.600000X1.600000*%
%ADD12R,1.600000X2.400000*%
%ADD13O,1.600000X2.400000*%
%ADD14R,1.500000X1.500000*%
%ADD15O,1.500000X1.500000*%
%ADD16C,1.500000*%
%ADD17R,1.600000X1.600000*%
%ADD18R,1.700000X1.700000*%
%ADD19O,1.700000X1.700000*%
G04 APERTURE END LIST*
D10*
%TO.C,R3*%
X208280000Y-101600000D03*
D11*
X208280000Y-111760000D03*
%TD*%
D10*
%TO.C,C1*%
X176530000Y-81280000D03*
X176530000Y-76280000D03*
%TD*%
D12*
%TO.C,U2*%
X120650000Y-63500000D03*
D13*
X123190000Y-63500000D03*
X125730000Y-63500000D03*
X128270000Y-63500000D03*
X130810000Y-63500000D03*
X133350000Y-63500000D03*
X135890000Y-63500000D03*
X138430000Y-63500000D03*
X140970000Y-63500000D03*
X143510000Y-63500000D03*
X146050000Y-63500000D03*
X148590000Y-63500000D03*
X151130000Y-63500000D03*
X153670000Y-63500000D03*
X156210000Y-63500000D03*
X158750000Y-63500000D03*
X161290000Y-63500000D03*
X163830000Y-63500000D03*
X166370000Y-63500000D03*
X168910000Y-63500000D03*
X168910000Y-48260000D03*
X166370000Y-48260000D03*
X163830000Y-48260000D03*
X161290000Y-48260000D03*
X158750000Y-48260000D03*
X156210000Y-48260000D03*
X153670000Y-48260000D03*
X151130000Y-48260000D03*
X148590000Y-48260000D03*
X146050000Y-48260000D03*
X143510000Y-48260000D03*
X140970000Y-48260000D03*
X138430000Y-48260000D03*
X135890000Y-48260000D03*
X133350000Y-48260000D03*
X130810000Y-48260000D03*
X128270000Y-48260000D03*
X125730000Y-48260000D03*
X123190000Y-48260000D03*
X120650000Y-48260000D03*
%TD*%
D10*
%TO.C,R2*%
X182880000Y-36830000D03*
D11*
X193040000Y-36830000D03*
%TD*%
D14*
%TO.C,D5*%
X208280000Y-97790000D03*
D15*
X208280000Y-90170000D03*
%TD*%
D14*
%TO.C,D6*%
X205740000Y-97795000D03*
D15*
X205740000Y-90175000D03*
%TD*%
D14*
%TO.C,Q1*%
X177165000Y-121920000D03*
D16*
X177165000Y-119380000D03*
X177165000Y-116840000D03*
%TD*%
D14*
%TO.C,D2*%
X185420000Y-101600000D03*
D15*
X185420000Y-109220000D03*
%TD*%
D10*
%TO.C,C6*%
X118110000Y-88645000D03*
X118110000Y-83645000D03*
%TD*%
D12*
%TO.C,U4*%
X121920000Y-93980000D03*
D13*
X124460000Y-93980000D03*
X127000000Y-93980000D03*
X129540000Y-93980000D03*
X132080000Y-93980000D03*
X134620000Y-93980000D03*
X137160000Y-93980000D03*
X139700000Y-93980000D03*
X142240000Y-93980000D03*
X144780000Y-93980000D03*
X147320000Y-93980000D03*
X149860000Y-93980000D03*
X152400000Y-93980000D03*
X154940000Y-93980000D03*
X157480000Y-93980000D03*
X160020000Y-93980000D03*
X162560000Y-93980000D03*
X165100000Y-93980000D03*
X167640000Y-93980000D03*
X170180000Y-93980000D03*
X170180000Y-78740000D03*
X167640000Y-78740000D03*
X165100000Y-78740000D03*
X162560000Y-78740000D03*
X160020000Y-78740000D03*
X157480000Y-78740000D03*
X154940000Y-78740000D03*
X152400000Y-78740000D03*
X149860000Y-78740000D03*
X147320000Y-78740000D03*
X144780000Y-78740000D03*
X142240000Y-78740000D03*
X139700000Y-78740000D03*
X137160000Y-78740000D03*
X134620000Y-78740000D03*
X132080000Y-78740000D03*
X129540000Y-78740000D03*
X127000000Y-78740000D03*
X124460000Y-78740000D03*
X121920000Y-78740000D03*
%TD*%
D12*
%TO.C,U6*%
X182875000Y-64760000D03*
D13*
X185415000Y-64760000D03*
X187955000Y-64760000D03*
X190495000Y-64760000D03*
X193035000Y-64760000D03*
X195575000Y-64760000D03*
X198115000Y-64760000D03*
X198115000Y-57140000D03*
X195575000Y-57140000D03*
X193035000Y-57140000D03*
X190495000Y-57140000D03*
X187955000Y-57140000D03*
X185415000Y-57140000D03*
X182875000Y-57140000D03*
%TD*%
D10*
%TO.C,C5*%
X176530000Y-59690000D03*
X176530000Y-54690000D03*
%TD*%
D12*
%TO.C,U10*%
X182875000Y-49520000D03*
D13*
X185415000Y-49520000D03*
X187955000Y-49520000D03*
X190495000Y-49520000D03*
X193035000Y-49520000D03*
X195575000Y-49520000D03*
X198115000Y-49520000D03*
X198115000Y-41900000D03*
X195575000Y-41900000D03*
X193035000Y-41900000D03*
X190495000Y-41900000D03*
X187955000Y-41900000D03*
X185415000Y-41900000D03*
X182875000Y-41900000D03*
%TD*%
D14*
%TO.C,D1*%
X182880000Y-101595000D03*
D15*
X182880000Y-109215000D03*
%TD*%
D10*
%TO.C,C3*%
X176530000Y-91520000D03*
X176530000Y-96520000D03*
%TD*%
%TO.C,C4*%
X115570000Y-59715000D03*
X115570000Y-54715000D03*
%TD*%
D12*
%TO.C,U8*%
X121920000Y-127000000D03*
D13*
X124460000Y-127000000D03*
X127000000Y-127000000D03*
X129540000Y-127000000D03*
X132080000Y-127000000D03*
X134620000Y-127000000D03*
X137160000Y-127000000D03*
X139700000Y-127000000D03*
X142240000Y-127000000D03*
X144780000Y-127000000D03*
X147320000Y-127000000D03*
X149860000Y-127000000D03*
X152400000Y-127000000D03*
X154940000Y-127000000D03*
X154940000Y-111760000D03*
X152400000Y-111760000D03*
X149860000Y-111760000D03*
X147320000Y-111760000D03*
X144780000Y-111760000D03*
X142240000Y-111760000D03*
X139700000Y-111760000D03*
X137160000Y-111760000D03*
X134620000Y-111760000D03*
X132080000Y-111760000D03*
X129540000Y-111760000D03*
X127000000Y-111760000D03*
X124460000Y-111760000D03*
X121920000Y-111760000D03*
%TD*%
D17*
%TO.C,RN1*%
X121920000Y-75184000D03*
D11*
X124460000Y-75184000D03*
X127000000Y-75184000D03*
X129540000Y-75184000D03*
X132080000Y-75184000D03*
X134620000Y-75184000D03*
X137160000Y-75184000D03*
%TD*%
D12*
%TO.C,U9*%
X182870000Y-97775000D03*
D13*
X185410000Y-97775000D03*
X187950000Y-97775000D03*
X190490000Y-97775000D03*
X193030000Y-97775000D03*
X195570000Y-97775000D03*
X198110000Y-97775000D03*
X200650000Y-97775000D03*
X200650000Y-90155000D03*
X198110000Y-90155000D03*
X195570000Y-90155000D03*
X193030000Y-90155000D03*
X190490000Y-90155000D03*
X187950000Y-90155000D03*
X185410000Y-90155000D03*
X182870000Y-90155000D03*
%TD*%
D14*
%TO.C,D4*%
X190500000Y-101595000D03*
D15*
X190500000Y-109215000D03*
%TD*%
D10*
%TO.C,C2*%
X164465000Y-121920000D03*
X164465000Y-116920000D03*
%TD*%
D14*
%TO.C,D3*%
X187960000Y-101595000D03*
D15*
X187960000Y-109215000D03*
%TD*%
D10*
%TO.C,R1*%
X170815000Y-124460000D03*
D11*
X170815000Y-114300000D03*
%TD*%
D12*
%TO.C,U7*%
X182875000Y-81270000D03*
D13*
X185415000Y-81270000D03*
X187955000Y-81270000D03*
X190495000Y-81270000D03*
X193035000Y-81270000D03*
X195575000Y-81270000D03*
X198115000Y-81270000D03*
X198115000Y-73650000D03*
X195575000Y-73650000D03*
X193035000Y-73650000D03*
X190495000Y-73650000D03*
X187955000Y-73650000D03*
X185415000Y-73650000D03*
X182875000Y-73650000D03*
%TD*%
D18*
%TO.C,J5*%
X170170000Y-86355000D03*
D19*
X167630000Y-86355000D03*
X165090000Y-86355000D03*
X162550000Y-86355000D03*
X160010000Y-86355000D03*
X157470000Y-86355000D03*
X154930000Y-86355000D03*
X152390000Y-86355000D03*
X149850000Y-86355000D03*
X147310000Y-86355000D03*
X144770000Y-86355000D03*
X142230000Y-86355000D03*
X139690000Y-86355000D03*
X137150000Y-86355000D03*
X134610000Y-86355000D03*
X132070000Y-86355000D03*
X129530000Y-86355000D03*
X126990000Y-86355000D03*
X124450000Y-86355000D03*
X121910000Y-86355000D03*
%TD*%
D18*
%TO.C,J1*%
X120650000Y-71120000D03*
D19*
X123190000Y-71120000D03*
X125730000Y-71120000D03*
X128270000Y-71120000D03*
X130810000Y-71120000D03*
X133350000Y-71120000D03*
X135890000Y-71120000D03*
X138430000Y-71120000D03*
X140970000Y-71120000D03*
X143510000Y-71120000D03*
X146050000Y-71120000D03*
X148590000Y-71120000D03*
X151130000Y-71120000D03*
X153670000Y-71120000D03*
X156210000Y-71120000D03*
X158750000Y-71120000D03*
X161290000Y-71120000D03*
X163830000Y-71120000D03*
X166370000Y-71120000D03*
X168910000Y-71120000D03*
%TD*%
D18*
%TO.C,J2*%
X168910000Y-55880000D03*
D19*
X166370000Y-55880000D03*
X163830000Y-55880000D03*
X161290000Y-55880000D03*
X158750000Y-55880000D03*
X156210000Y-55880000D03*
X153670000Y-55880000D03*
X151130000Y-55880000D03*
X148590000Y-55880000D03*
X146050000Y-55880000D03*
X143510000Y-55880000D03*
X140970000Y-55880000D03*
X138430000Y-55880000D03*
X135890000Y-55880000D03*
X133350000Y-55880000D03*
X130810000Y-55880000D03*
X128270000Y-55880000D03*
X125730000Y-55880000D03*
X123190000Y-55880000D03*
X120650000Y-55880000D03*
%TD*%
D18*
%TO.C,J3*%
X119380000Y-40640000D03*
D19*
X121920000Y-40640000D03*
X124460000Y-40640000D03*
X127000000Y-40640000D03*
X129540000Y-40640000D03*
X132080000Y-40640000D03*
X134620000Y-40640000D03*
X137160000Y-40640000D03*
X139700000Y-40640000D03*
X142240000Y-40640000D03*
X144780000Y-40640000D03*
X147320000Y-40640000D03*
X149860000Y-40640000D03*
X152400000Y-40640000D03*
X154940000Y-40640000D03*
X157480000Y-40640000D03*
X160020000Y-40640000D03*
X162560000Y-40640000D03*
X165100000Y-40640000D03*
X167640000Y-40640000D03*
%TD*%
D18*
%TO.C,J4*%
X121920000Y-101600000D03*
D19*
X124460000Y-101600000D03*
X127000000Y-101600000D03*
X129540000Y-101600000D03*
X132080000Y-101600000D03*
X134620000Y-101600000D03*
X137160000Y-101600000D03*
X139700000Y-101600000D03*
X142240000Y-101600000D03*
X144780000Y-101600000D03*
X147320000Y-101600000D03*
X149860000Y-101600000D03*
X152400000Y-101600000D03*
X154940000Y-101600000D03*
X157480000Y-101600000D03*
X160020000Y-101600000D03*
X162560000Y-101600000D03*
X165100000Y-101600000D03*
X167640000Y-101600000D03*
X170180000Y-101600000D03*
%TD*%
M02*
