M48
; DRILL file {KiCad 6.0.4+dfsg-1} date Tue 12 Apr 2022 11:54:20
; FORMAT={-:-/ absolute / metric / decimal}
; #@! TF.CreationDate,2022-04-12T11:54:20+09:30
; #@! TF.GenerationSoftware,Kicad,Pcbnew,6.0.4+dfsg-1
; #@! TF.FileFunction,Plated,1,2,PTH
FMAT,2
METRIC
; #@! TA.AperFunction,Plated,PTH,ViaDrill
T1C0.400
; #@! TA.AperFunction,Plated,PTH,ComponentDrill
T2C0.750
; #@! TA.AperFunction,Plated,PTH,ComponentDrill
T3C0.800
; #@! TA.AperFunction,Plated,PTH,ComponentDrill
T4C1.000
%
G90
G05
T1
X114.07Y-74.398
X114.07Y-88.67
X114.07Y-111.53
X115.57Y-80.772
X115.57Y-105.41
X116.84Y-82.042
X118.11Y-104.14
X118.11Y-117.475
X120.015Y-118.11
X120.65Y-106.045
X121.92Y-120.65
X123.19Y-107.95
X123.19Y-119.38
X124.968Y-72.898
X125.73Y-99.695
X125.73Y-118.11
X127.0Y-52.07
X128.27Y-116.84
X128.524Y-98.806
X129.54Y-106.68
X130.81Y-98.335
X132.842Y-82.296
X133.35Y-97.7
X134.62Y-106.68
X135.853Y-73.623
X135.89Y-97.028
X137.16Y-82.804
X137.16Y-105.41
X137.16Y-109.13
X138.43Y-84.074
X138.43Y-96.285
X139.192Y-72.898
X139.7Y-107.95
X139.7Y-116.115
X144.78Y-107.95
X147.32Y-106.68
X148.59Y-104.14
X149.86Y-105.41
X153.67Y-105.41
X154.94Y-104.14
X156.21Y-106.68
X158.749Y-80.265
X158.75Y-82.804
X158.75Y-107.95
X159.385Y-111.125
X163.068Y-109.22
X163.83Y-74.93
X166.37Y-90.17
X169.545Y-110.49
X172.72Y-44.45
X172.72Y-78.74
X174.625Y-49.53
X174.625Y-98.425
X176.53Y-63.5
X176.53Y-72.39
X178.435Y-57.15
X178.435Y-76.2
X178.435Y-83.82
X178.435Y-90.17
X180.34Y-44.45
X181.064Y-92.71
X181.61Y-70.485
X184.15Y-53.34
X184.15Y-94.615
X188.595Y-45.085
X189.23Y-46.355
X191.77Y-69.85
X191.77Y-92.71
X194.31Y-68.58
X195.58Y-53.34
X198.12Y-110.49
X205.74Y-76.835
T2
X182.88Y-101.595
X182.88Y-109.215
X185.42Y-101.6
X185.42Y-109.22
X187.96Y-101.595
X187.96Y-109.215
X190.5Y-101.595
X190.5Y-109.215
X205.74Y-90.175
X205.74Y-97.795
X208.28Y-90.17
X208.28Y-97.79
T3
X115.57Y-54.715
X115.57Y-59.715
X118.11Y-83.645
X118.11Y-88.645
X120.65Y-48.26
X120.65Y-63.5
X121.92Y-75.184
X121.92Y-78.74
X121.92Y-93.98
X121.92Y-111.76
X121.92Y-127.0
X123.19Y-48.26
X123.19Y-63.5
X124.46Y-75.184
X124.46Y-78.74
X124.46Y-93.98
X124.46Y-111.76
X124.46Y-127.0
X125.73Y-48.26
X125.73Y-63.5
X127.0Y-75.184
X127.0Y-78.74
X127.0Y-93.98
X127.0Y-111.76
X127.0Y-127.0
X128.27Y-48.26
X128.27Y-63.5
X129.54Y-75.184
X129.54Y-78.74
X129.54Y-93.98
X129.54Y-111.76
X129.54Y-127.0
X130.81Y-48.26
X130.81Y-63.5
X132.08Y-75.184
X132.08Y-78.74
X132.08Y-93.98
X132.08Y-111.76
X132.08Y-127.0
X133.35Y-48.26
X133.35Y-63.5
X134.62Y-75.184
X134.62Y-78.74
X134.62Y-93.98
X134.62Y-111.76
X134.62Y-127.0
X135.89Y-48.26
X135.89Y-63.5
X137.16Y-75.184
X137.16Y-78.74
X137.16Y-93.98
X137.16Y-111.76
X137.16Y-127.0
X138.43Y-48.26
X138.43Y-63.5
X139.7Y-78.74
X139.7Y-93.98
X139.7Y-111.76
X139.7Y-127.0
X140.97Y-48.26
X140.97Y-63.5
X142.24Y-78.74
X142.24Y-93.98
X142.24Y-111.76
X142.24Y-127.0
X143.51Y-48.26
X143.51Y-63.5
X144.78Y-78.74
X144.78Y-93.98
X144.78Y-111.76
X144.78Y-127.0
X146.05Y-48.26
X146.05Y-63.5
X147.32Y-78.74
X147.32Y-93.98
X147.32Y-111.76
X147.32Y-127.0
X148.59Y-48.26
X148.59Y-63.5
X149.86Y-78.74
X149.86Y-93.98
X149.86Y-111.76
X149.86Y-127.0
X151.13Y-48.26
X151.13Y-63.5
X152.4Y-78.74
X152.4Y-93.98
X152.4Y-111.76
X152.4Y-127.0
X153.67Y-48.26
X153.67Y-63.5
X154.94Y-78.74
X154.94Y-93.98
X154.94Y-111.76
X154.94Y-127.0
X156.21Y-48.26
X156.21Y-63.5
X157.48Y-78.74
X157.48Y-93.98
X158.75Y-48.26
X158.75Y-63.5
X160.02Y-78.74
X160.02Y-93.98
X161.29Y-48.26
X161.29Y-63.5
X162.56Y-78.74
X162.56Y-93.98
X163.83Y-48.26
X163.83Y-63.5
X164.465Y-116.92
X164.465Y-121.92
X165.1Y-78.74
X165.1Y-93.98
X166.37Y-48.26
X166.37Y-63.5
X167.64Y-78.74
X167.64Y-93.98
X168.91Y-48.26
X168.91Y-63.5
X170.18Y-78.74
X170.18Y-93.98
X170.815Y-114.3
X170.815Y-124.46
X176.53Y-54.69
X176.53Y-59.69
X176.53Y-76.28
X176.53Y-81.28
X176.53Y-91.52
X176.53Y-96.52
X177.165Y-116.84
X177.165Y-119.38
X177.165Y-121.92
X182.87Y-90.155
X182.87Y-97.775
X182.875Y-41.9
X182.875Y-49.52
X182.875Y-57.14
X182.875Y-64.76
X182.875Y-73.65
X182.875Y-81.27
X182.88Y-36.83
X185.41Y-90.155
X185.41Y-97.775
X185.415Y-41.9
X185.415Y-49.52
X185.415Y-57.14
X185.415Y-64.76
X185.415Y-73.65
X185.415Y-81.27
X187.95Y-90.155
X187.95Y-97.775
X187.955Y-41.9
X187.955Y-49.52
X187.955Y-57.14
X187.955Y-64.76
X187.955Y-73.65
X187.955Y-81.27
X190.49Y-90.155
X190.49Y-97.775
X190.495Y-41.9
X190.495Y-49.52
X190.495Y-57.14
X190.495Y-64.76
X190.495Y-73.65
X190.495Y-81.27
X193.03Y-90.155
X193.03Y-97.775
X193.035Y-41.9
X193.035Y-49.52
X193.035Y-57.14
X193.035Y-64.76
X193.035Y-73.65
X193.035Y-81.27
X193.04Y-36.83
X195.57Y-90.155
X195.57Y-97.775
X195.575Y-41.9
X195.575Y-49.52
X195.575Y-57.14
X195.575Y-64.76
X195.575Y-73.65
X195.575Y-81.27
X198.11Y-90.155
X198.11Y-97.775
X198.115Y-41.9
X198.115Y-49.52
X198.115Y-57.14
X198.115Y-64.76
X198.115Y-73.65
X198.115Y-81.27
X200.65Y-90.155
X200.65Y-97.775
X208.28Y-101.6
X208.28Y-111.76
T4
X119.38Y-40.64
X120.65Y-55.88
X120.65Y-71.12
X121.91Y-86.355
X121.92Y-40.64
X121.92Y-101.6
X123.19Y-55.88
X123.19Y-71.12
X124.45Y-86.355
X124.46Y-40.64
X124.46Y-101.6
X125.73Y-55.88
X125.73Y-71.12
X126.99Y-86.355
X127.0Y-40.64
X127.0Y-101.6
X128.27Y-55.88
X128.27Y-71.12
X129.53Y-86.355
X129.54Y-40.64
X129.54Y-101.6
X130.81Y-55.88
X130.81Y-71.12
X132.07Y-86.355
X132.08Y-40.64
X132.08Y-101.6
X133.35Y-55.88
X133.35Y-71.12
X134.61Y-86.355
X134.62Y-40.64
X134.62Y-101.6
X135.89Y-55.88
X135.89Y-71.12
X137.15Y-86.355
X137.16Y-40.64
X137.16Y-101.6
X138.43Y-55.88
X138.43Y-71.12
X139.69Y-86.355
X139.7Y-40.64
X139.7Y-101.6
X140.97Y-55.88
X140.97Y-71.12
X142.23Y-86.355
X142.24Y-40.64
X142.24Y-101.6
X143.51Y-55.88
X143.51Y-71.12
X144.77Y-86.355
X144.78Y-40.64
X144.78Y-101.6
X146.05Y-55.88
X146.05Y-71.12
X147.31Y-86.355
X147.32Y-40.64
X147.32Y-101.6
X148.59Y-55.88
X148.59Y-71.12
X149.85Y-86.355
X149.86Y-40.64
X149.86Y-101.6
X151.13Y-55.88
X151.13Y-71.12
X152.39Y-86.355
X152.4Y-40.64
X152.4Y-101.6
X153.67Y-55.88
X153.67Y-71.12
X154.93Y-86.355
X154.94Y-40.64
X154.94Y-101.6
X156.21Y-55.88
X156.21Y-71.12
X157.47Y-86.355
X157.48Y-40.64
X157.48Y-101.6
X158.75Y-55.88
X158.75Y-71.12
X160.01Y-86.355
X160.02Y-40.64
X160.02Y-101.6
X161.29Y-55.88
X161.29Y-71.12
X162.55Y-86.355
X162.56Y-40.64
X162.56Y-101.6
X163.83Y-55.88
X163.83Y-71.12
X165.09Y-86.355
X165.1Y-40.64
X165.1Y-101.6
X166.37Y-55.88
X166.37Y-71.12
X167.63Y-86.355
X167.64Y-40.64
X167.64Y-101.6
X168.91Y-55.88
X168.91Y-71.12
X170.17Y-86.355
X170.18Y-101.6
T0
M30
