%TF.GenerationSoftware,KiCad,Pcbnew,6.0.4+dfsg-1*%
%TF.CreationDate,2022-04-12T11:54:30+09:30*%
%TF.ProjectId,6530 to 6532 adaptor,36353330-2074-46f2-9036-353332206164,rev?*%
%TF.SameCoordinates,Original*%
%TF.FileFunction,Legend,Top*%
%TF.FilePolarity,Positive*%
%FSLAX46Y46*%
G04 Gerber Fmt 4.6, Leading zero omitted, Abs format (unit mm)*
G04 Created by KiCad (PCBNEW 6.0.4+dfsg-1) date 2022-04-12 11:54:30*
%MOMM*%
%LPD*%
G01*
G04 APERTURE LIST*
%ADD10C,0.150000*%
%ADD11C,0.120000*%
G04 APERTURE END LIST*
D10*
X187111666Y-117982380D02*
X186921190Y-117982380D01*
X186825952Y-118030000D01*
X186778333Y-118077619D01*
X186683095Y-118220476D01*
X186635476Y-118410952D01*
X186635476Y-118791904D01*
X186683095Y-118887142D01*
X186730714Y-118934761D01*
X186825952Y-118982380D01*
X187016428Y-118982380D01*
X187111666Y-118934761D01*
X187159285Y-118887142D01*
X187206904Y-118791904D01*
X187206904Y-118553809D01*
X187159285Y-118458571D01*
X187111666Y-118410952D01*
X187016428Y-118363333D01*
X186825952Y-118363333D01*
X186730714Y-118410952D01*
X186683095Y-118458571D01*
X186635476Y-118553809D01*
X188111666Y-117982380D02*
X187635476Y-117982380D01*
X187587857Y-118458571D01*
X187635476Y-118410952D01*
X187730714Y-118363333D01*
X187968809Y-118363333D01*
X188064047Y-118410952D01*
X188111666Y-118458571D01*
X188159285Y-118553809D01*
X188159285Y-118791904D01*
X188111666Y-118887142D01*
X188064047Y-118934761D01*
X187968809Y-118982380D01*
X187730714Y-118982380D01*
X187635476Y-118934761D01*
X187587857Y-118887142D01*
X188492619Y-117982380D02*
X189111666Y-117982380D01*
X188778333Y-118363333D01*
X188921190Y-118363333D01*
X189016428Y-118410952D01*
X189064047Y-118458571D01*
X189111666Y-118553809D01*
X189111666Y-118791904D01*
X189064047Y-118887142D01*
X189016428Y-118934761D01*
X188921190Y-118982380D01*
X188635476Y-118982380D01*
X188540238Y-118934761D01*
X188492619Y-118887142D01*
X189730714Y-117982380D02*
X189825952Y-117982380D01*
X189921190Y-118030000D01*
X189968809Y-118077619D01*
X190016428Y-118172857D01*
X190064047Y-118363333D01*
X190064047Y-118601428D01*
X190016428Y-118791904D01*
X189968809Y-118887142D01*
X189921190Y-118934761D01*
X189825952Y-118982380D01*
X189730714Y-118982380D01*
X189635476Y-118934761D01*
X189587857Y-118887142D01*
X189540238Y-118791904D01*
X189492619Y-118601428D01*
X189492619Y-118363333D01*
X189540238Y-118172857D01*
X189587857Y-118077619D01*
X189635476Y-118030000D01*
X189730714Y-117982380D01*
X191825952Y-118982380D02*
X191492619Y-118506190D01*
X191254523Y-118982380D02*
X191254523Y-117982380D01*
X191635476Y-117982380D01*
X191730714Y-118030000D01*
X191778333Y-118077619D01*
X191825952Y-118172857D01*
X191825952Y-118315714D01*
X191778333Y-118410952D01*
X191730714Y-118458571D01*
X191635476Y-118506190D01*
X191254523Y-118506190D01*
X192635476Y-118934761D02*
X192540238Y-118982380D01*
X192349761Y-118982380D01*
X192254523Y-118934761D01*
X192206904Y-118839523D01*
X192206904Y-118458571D01*
X192254523Y-118363333D01*
X192349761Y-118315714D01*
X192540238Y-118315714D01*
X192635476Y-118363333D01*
X192683095Y-118458571D01*
X192683095Y-118553809D01*
X192206904Y-118649047D01*
X193111666Y-118315714D02*
X193111666Y-119315714D01*
X193111666Y-118363333D02*
X193206904Y-118315714D01*
X193397380Y-118315714D01*
X193492619Y-118363333D01*
X193540238Y-118410952D01*
X193587857Y-118506190D01*
X193587857Y-118791904D01*
X193540238Y-118887142D01*
X193492619Y-118934761D01*
X193397380Y-118982380D01*
X193206904Y-118982380D01*
X193111666Y-118934761D01*
X194159285Y-118982380D02*
X194064047Y-118934761D01*
X194016428Y-118839523D01*
X194016428Y-117982380D01*
X194968809Y-118982380D02*
X194968809Y-118458571D01*
X194921190Y-118363333D01*
X194825952Y-118315714D01*
X194635476Y-118315714D01*
X194540238Y-118363333D01*
X194968809Y-118934761D02*
X194873571Y-118982380D01*
X194635476Y-118982380D01*
X194540238Y-118934761D01*
X194492619Y-118839523D01*
X194492619Y-118744285D01*
X194540238Y-118649047D01*
X194635476Y-118601428D01*
X194873571Y-118601428D01*
X194968809Y-118553809D01*
X195873571Y-118934761D02*
X195778333Y-118982380D01*
X195587857Y-118982380D01*
X195492619Y-118934761D01*
X195445000Y-118887142D01*
X195397380Y-118791904D01*
X195397380Y-118506190D01*
X195445000Y-118410952D01*
X195492619Y-118363333D01*
X195587857Y-118315714D01*
X195778333Y-118315714D01*
X195873571Y-118363333D01*
X196683095Y-118934761D02*
X196587857Y-118982380D01*
X196397380Y-118982380D01*
X196302142Y-118934761D01*
X196254523Y-118839523D01*
X196254523Y-118458571D01*
X196302142Y-118363333D01*
X196397380Y-118315714D01*
X196587857Y-118315714D01*
X196683095Y-118363333D01*
X196730714Y-118458571D01*
X196730714Y-118553809D01*
X196254523Y-118649047D01*
X197159285Y-118982380D02*
X197159285Y-118315714D01*
X197159285Y-118410952D02*
X197206904Y-118363333D01*
X197302142Y-118315714D01*
X197445000Y-118315714D01*
X197540238Y-118363333D01*
X197587857Y-118458571D01*
X197587857Y-118982380D01*
X197587857Y-118458571D02*
X197635476Y-118363333D01*
X197730714Y-118315714D01*
X197873571Y-118315714D01*
X197968809Y-118363333D01*
X198016428Y-118458571D01*
X198016428Y-118982380D01*
X198873571Y-118934761D02*
X198778333Y-118982380D01*
X198587857Y-118982380D01*
X198492619Y-118934761D01*
X198445000Y-118839523D01*
X198445000Y-118458571D01*
X198492619Y-118363333D01*
X198587857Y-118315714D01*
X198778333Y-118315714D01*
X198873571Y-118363333D01*
X198921190Y-118458571D01*
X198921190Y-118553809D01*
X198445000Y-118649047D01*
X199349761Y-118315714D02*
X199349761Y-118982380D01*
X199349761Y-118410952D02*
X199397380Y-118363333D01*
X199492619Y-118315714D01*
X199635476Y-118315714D01*
X199730714Y-118363333D01*
X199778333Y-118458571D01*
X199778333Y-118982380D01*
X200111666Y-118315714D02*
X200492619Y-118315714D01*
X200254523Y-117982380D02*
X200254523Y-118839523D01*
X200302142Y-118934761D01*
X200397380Y-118982380D01*
X200492619Y-118982380D01*
X201445000Y-118315714D02*
X201825952Y-118315714D01*
X201587857Y-118982380D02*
X201587857Y-118125238D01*
X201635476Y-118030000D01*
X201730714Y-117982380D01*
X201825952Y-117982380D01*
X202302142Y-118982380D02*
X202206904Y-118934761D01*
X202159285Y-118887142D01*
X202111666Y-118791904D01*
X202111666Y-118506190D01*
X202159285Y-118410952D01*
X202206904Y-118363333D01*
X202302142Y-118315714D01*
X202445000Y-118315714D01*
X202540238Y-118363333D01*
X202587857Y-118410952D01*
X202635476Y-118506190D01*
X202635476Y-118791904D01*
X202587857Y-118887142D01*
X202540238Y-118934761D01*
X202445000Y-118982380D01*
X202302142Y-118982380D01*
X203064047Y-118982380D02*
X203064047Y-118315714D01*
X203064047Y-118506190D02*
X203111666Y-118410952D01*
X203159285Y-118363333D01*
X203254523Y-118315714D01*
X203349761Y-118315714D01*
X187016428Y-120306666D02*
X187492619Y-120306666D01*
X186921190Y-120592380D02*
X187254523Y-119592380D01*
X187587857Y-120592380D01*
X188064047Y-120592380D02*
X187968809Y-120544761D01*
X187921190Y-120449523D01*
X187921190Y-119592380D01*
X188587857Y-120592380D02*
X188492619Y-120544761D01*
X188445000Y-120449523D01*
X188445000Y-119592380D01*
X188968809Y-120592380D02*
X188968809Y-119925714D01*
X188968809Y-119592380D02*
X188921190Y-119640000D01*
X188968809Y-119687619D01*
X189016428Y-119640000D01*
X188968809Y-119592380D01*
X188968809Y-119687619D01*
X189825952Y-120544761D02*
X189730714Y-120592380D01*
X189540238Y-120592380D01*
X189445000Y-120544761D01*
X189397380Y-120449523D01*
X189397380Y-120068571D01*
X189445000Y-119973333D01*
X189540238Y-119925714D01*
X189730714Y-119925714D01*
X189825952Y-119973333D01*
X189873571Y-120068571D01*
X189873571Y-120163809D01*
X189397380Y-120259047D01*
X190730714Y-120592380D02*
X190730714Y-119592380D01*
X190730714Y-120544761D02*
X190635476Y-120592380D01*
X190445000Y-120592380D01*
X190349761Y-120544761D01*
X190302142Y-120497142D01*
X190254523Y-120401904D01*
X190254523Y-120116190D01*
X190302142Y-120020952D01*
X190349761Y-119973333D01*
X190445000Y-119925714D01*
X190635476Y-119925714D01*
X190730714Y-119973333D01*
X192445000Y-120592380D02*
X191968809Y-120592380D01*
X191968809Y-119592380D01*
X193159285Y-120544761D02*
X193064047Y-120592380D01*
X192873571Y-120592380D01*
X192778333Y-120544761D01*
X192730714Y-120449523D01*
X192730714Y-120068571D01*
X192778333Y-119973333D01*
X192873571Y-119925714D01*
X193064047Y-119925714D01*
X193159285Y-119973333D01*
X193206904Y-120068571D01*
X193206904Y-120163809D01*
X192730714Y-120259047D01*
X193635476Y-120592380D02*
X193635476Y-119925714D01*
X193635476Y-119592380D02*
X193587857Y-119640000D01*
X193635476Y-119687619D01*
X193683095Y-119640000D01*
X193635476Y-119592380D01*
X193635476Y-119687619D01*
X194064047Y-120544761D02*
X194159285Y-120592380D01*
X194349761Y-120592380D01*
X194445000Y-120544761D01*
X194492619Y-120449523D01*
X194492619Y-120401904D01*
X194445000Y-120306666D01*
X194349761Y-120259047D01*
X194206904Y-120259047D01*
X194111666Y-120211428D01*
X194064047Y-120116190D01*
X194064047Y-120068571D01*
X194111666Y-119973333D01*
X194206904Y-119925714D01*
X194349761Y-119925714D01*
X194445000Y-119973333D01*
X195349761Y-119925714D02*
X195349761Y-120592380D01*
X194921190Y-119925714D02*
X194921190Y-120449523D01*
X194968809Y-120544761D01*
X195064047Y-120592380D01*
X195206904Y-120592380D01*
X195302142Y-120544761D01*
X195349761Y-120497142D01*
X195825952Y-120592380D02*
X195825952Y-119925714D01*
X195825952Y-120116190D02*
X195873571Y-120020952D01*
X195921190Y-119973333D01*
X196016428Y-119925714D01*
X196111666Y-119925714D01*
X196825952Y-120544761D02*
X196730714Y-120592380D01*
X196540238Y-120592380D01*
X196445000Y-120544761D01*
X196397380Y-120449523D01*
X196397380Y-120068571D01*
X196445000Y-119973333D01*
X196540238Y-119925714D01*
X196730714Y-119925714D01*
X196825952Y-119973333D01*
X196873571Y-120068571D01*
X196873571Y-120163809D01*
X196397380Y-120259047D01*
X198064047Y-120592380D02*
X198064047Y-119592380D01*
X198445000Y-119592380D01*
X198540238Y-119640000D01*
X198587857Y-119687619D01*
X198635476Y-119782857D01*
X198635476Y-119925714D01*
X198587857Y-120020952D01*
X198540238Y-120068571D01*
X198445000Y-120116190D01*
X198064047Y-120116190D01*
X199064047Y-120592380D02*
X199064047Y-119925714D01*
X199064047Y-119592380D02*
X199016428Y-119640000D01*
X199064047Y-119687619D01*
X199111666Y-119640000D01*
X199064047Y-119592380D01*
X199064047Y-119687619D01*
X199540238Y-119925714D02*
X199540238Y-120592380D01*
X199540238Y-120020952D02*
X199587857Y-119973333D01*
X199683095Y-119925714D01*
X199825952Y-119925714D01*
X199921190Y-119973333D01*
X199968809Y-120068571D01*
X199968809Y-120592380D01*
X200445000Y-120592380D02*
X200445000Y-119592380D01*
X200445000Y-119973333D02*
X200540238Y-119925714D01*
X200730714Y-119925714D01*
X200825952Y-119973333D01*
X200873571Y-120020952D01*
X200921190Y-120116190D01*
X200921190Y-120401904D01*
X200873571Y-120497142D01*
X200825952Y-120544761D01*
X200730714Y-120592380D01*
X200540238Y-120592380D01*
X200445000Y-120544761D01*
X201778333Y-120592380D02*
X201778333Y-120068571D01*
X201730714Y-119973333D01*
X201635476Y-119925714D01*
X201445000Y-119925714D01*
X201349761Y-119973333D01*
X201778333Y-120544761D02*
X201683095Y-120592380D01*
X201445000Y-120592380D01*
X201349761Y-120544761D01*
X201302142Y-120449523D01*
X201302142Y-120354285D01*
X201349761Y-120259047D01*
X201445000Y-120211428D01*
X201683095Y-120211428D01*
X201778333Y-120163809D01*
X202397380Y-120592380D02*
X202302142Y-120544761D01*
X202254523Y-120449523D01*
X202254523Y-119592380D01*
X202921190Y-120592380D02*
X202825952Y-120544761D01*
X202778333Y-120449523D01*
X202778333Y-119592380D01*
X186230714Y-124193333D02*
X186183095Y-124145714D01*
X186087857Y-124002857D01*
X186040238Y-123907619D01*
X185992619Y-123764761D01*
X185945000Y-123526666D01*
X185945000Y-123336190D01*
X185992619Y-123098095D01*
X186040238Y-122955238D01*
X186087857Y-122860000D01*
X186183095Y-122717142D01*
X186230714Y-122669523D01*
X187183095Y-123717142D02*
X187135476Y-123764761D01*
X186992619Y-123812380D01*
X186897380Y-123812380D01*
X186754523Y-123764761D01*
X186659285Y-123669523D01*
X186611666Y-123574285D01*
X186564047Y-123383809D01*
X186564047Y-123240952D01*
X186611666Y-123050476D01*
X186659285Y-122955238D01*
X186754523Y-122860000D01*
X186897380Y-122812380D01*
X186992619Y-122812380D01*
X187135476Y-122860000D01*
X187183095Y-122907619D01*
X187516428Y-124193333D02*
X187564047Y-124145714D01*
X187659285Y-124002857D01*
X187706904Y-123907619D01*
X187754523Y-123764761D01*
X187802142Y-123526666D01*
X187802142Y-123336190D01*
X187754523Y-123098095D01*
X187706904Y-122955238D01*
X187659285Y-122860000D01*
X187564047Y-122717142D01*
X187516428Y-122669523D01*
X188992619Y-122907619D02*
X189040238Y-122860000D01*
X189135476Y-122812380D01*
X189373571Y-122812380D01*
X189468809Y-122860000D01*
X189516428Y-122907619D01*
X189564047Y-123002857D01*
X189564047Y-123098095D01*
X189516428Y-123240952D01*
X188945000Y-123812380D01*
X189564047Y-123812380D01*
X190183095Y-122812380D02*
X190278333Y-122812380D01*
X190373571Y-122860000D01*
X190421190Y-122907619D01*
X190468809Y-123002857D01*
X190516428Y-123193333D01*
X190516428Y-123431428D01*
X190468809Y-123621904D01*
X190421190Y-123717142D01*
X190373571Y-123764761D01*
X190278333Y-123812380D01*
X190183095Y-123812380D01*
X190087857Y-123764761D01*
X190040238Y-123717142D01*
X189992619Y-123621904D01*
X189945000Y-123431428D01*
X189945000Y-123193333D01*
X189992619Y-123002857D01*
X190040238Y-122907619D01*
X190087857Y-122860000D01*
X190183095Y-122812380D01*
X190897380Y-122907619D02*
X190945000Y-122860000D01*
X191040238Y-122812380D01*
X191278333Y-122812380D01*
X191373571Y-122860000D01*
X191421190Y-122907619D01*
X191468809Y-123002857D01*
X191468809Y-123098095D01*
X191421190Y-123240952D01*
X190849761Y-123812380D01*
X191468809Y-123812380D01*
X191849761Y-122907619D02*
X191897380Y-122860000D01*
X191992619Y-122812380D01*
X192230714Y-122812380D01*
X192325952Y-122860000D01*
X192373571Y-122907619D01*
X192421190Y-123002857D01*
X192421190Y-123098095D01*
X192373571Y-123240952D01*
X191802142Y-123812380D01*
X192421190Y-123812380D01*
X193564047Y-123526666D02*
X194040238Y-123526666D01*
X193468809Y-123812380D02*
X193802142Y-122812380D01*
X194135476Y-123812380D01*
X194611666Y-123812380D02*
X194516428Y-123764761D01*
X194468809Y-123669523D01*
X194468809Y-122812380D01*
X195373571Y-123764761D02*
X195278333Y-123812380D01*
X195087857Y-123812380D01*
X194992619Y-123764761D01*
X194945000Y-123669523D01*
X194945000Y-123288571D01*
X194992619Y-123193333D01*
X195087857Y-123145714D01*
X195278333Y-123145714D01*
X195373571Y-123193333D01*
X195421190Y-123288571D01*
X195421190Y-123383809D01*
X194945000Y-123479047D01*
X195754523Y-123812380D02*
X196278333Y-123145714D01*
X195754523Y-123145714D02*
X196278333Y-123812380D01*
X196659285Y-123812380D02*
X196659285Y-123145714D01*
X196659285Y-122812380D02*
X196611666Y-122860000D01*
X196659285Y-122907619D01*
X196706904Y-122860000D01*
X196659285Y-122812380D01*
X196659285Y-122907619D01*
X197087857Y-123764761D02*
X197183095Y-123812380D01*
X197373571Y-123812380D01*
X197468809Y-123764761D01*
X197516428Y-123669523D01*
X197516428Y-123621904D01*
X197468809Y-123526666D01*
X197373571Y-123479047D01*
X197230714Y-123479047D01*
X197135476Y-123431428D01*
X197087857Y-123336190D01*
X197087857Y-123288571D01*
X197135476Y-123193333D01*
X197230714Y-123145714D01*
X197373571Y-123145714D01*
X197468809Y-123193333D01*
X198706904Y-123812380D02*
X198706904Y-122812380D01*
X199278333Y-123812380D02*
X198849761Y-123240952D01*
X199278333Y-122812380D02*
X198706904Y-123383809D01*
X199849761Y-123812380D02*
X199754523Y-123764761D01*
X199706904Y-123717142D01*
X199659285Y-123621904D01*
X199659285Y-123336190D01*
X199706904Y-123240952D01*
X199754523Y-123193333D01*
X199849761Y-123145714D01*
X199992619Y-123145714D01*
X200087857Y-123193333D01*
X200135476Y-123240952D01*
X200183095Y-123336190D01*
X200183095Y-123621904D01*
X200135476Y-123717142D01*
X200087857Y-123764761D01*
X199992619Y-123812380D01*
X199849761Y-123812380D01*
X200468809Y-123145714D02*
X200849761Y-123145714D01*
X200611666Y-122812380D02*
X200611666Y-123669523D01*
X200659285Y-123764761D01*
X200754523Y-123812380D01*
X200849761Y-123812380D01*
X201325952Y-123812380D02*
X201230714Y-123764761D01*
X201183095Y-123669523D01*
X201183095Y-122812380D01*
X201849761Y-123812380D02*
X201754523Y-123764761D01*
X201706904Y-123717142D01*
X201659285Y-123621904D01*
X201659285Y-123336190D01*
X201706904Y-123240952D01*
X201754523Y-123193333D01*
X201849761Y-123145714D01*
X201992619Y-123145714D01*
X202087857Y-123193333D01*
X202135476Y-123240952D01*
X202183095Y-123336190D01*
X202183095Y-123621904D01*
X202135476Y-123717142D01*
X202087857Y-123764761D01*
X201992619Y-123812380D01*
X201849761Y-123812380D01*
X202516428Y-123145714D02*
X202706904Y-123812380D01*
X202897380Y-123336190D01*
X203087857Y-123812380D01*
X203278333Y-123145714D01*
X203564047Y-123145714D02*
X203802142Y-123812380D01*
X204040238Y-123145714D02*
X203802142Y-123812380D01*
X203706904Y-124050476D01*
X203659285Y-124098095D01*
X203564047Y-124145714D01*
X185349761Y-127032380D02*
X185016428Y-126556190D01*
X184778333Y-127032380D02*
X184778333Y-126032380D01*
X185159285Y-126032380D01*
X185254523Y-126080000D01*
X185302142Y-126127619D01*
X185349761Y-126222857D01*
X185349761Y-126365714D01*
X185302142Y-126460952D01*
X185254523Y-126508571D01*
X185159285Y-126556190D01*
X184778333Y-126556190D01*
X186159285Y-126984761D02*
X186064047Y-127032380D01*
X185873571Y-127032380D01*
X185778333Y-126984761D01*
X185730714Y-126889523D01*
X185730714Y-126508571D01*
X185778333Y-126413333D01*
X185873571Y-126365714D01*
X186064047Y-126365714D01*
X186159285Y-126413333D01*
X186206904Y-126508571D01*
X186206904Y-126603809D01*
X185730714Y-126699047D01*
X186778333Y-127032380D02*
X186683095Y-126984761D01*
X186635476Y-126889523D01*
X186635476Y-126032380D01*
X187540238Y-126984761D02*
X187445000Y-127032380D01*
X187254523Y-127032380D01*
X187159285Y-126984761D01*
X187111666Y-126889523D01*
X187111666Y-126508571D01*
X187159285Y-126413333D01*
X187254523Y-126365714D01*
X187445000Y-126365714D01*
X187540238Y-126413333D01*
X187587857Y-126508571D01*
X187587857Y-126603809D01*
X187111666Y-126699047D01*
X188445000Y-127032380D02*
X188445000Y-126508571D01*
X188397380Y-126413333D01*
X188302142Y-126365714D01*
X188111666Y-126365714D01*
X188016428Y-126413333D01*
X188445000Y-126984761D02*
X188349761Y-127032380D01*
X188111666Y-127032380D01*
X188016428Y-126984761D01*
X187968809Y-126889523D01*
X187968809Y-126794285D01*
X188016428Y-126699047D01*
X188111666Y-126651428D01*
X188349761Y-126651428D01*
X188445000Y-126603809D01*
X188873571Y-126984761D02*
X188968809Y-127032380D01*
X189159285Y-127032380D01*
X189254523Y-126984761D01*
X189302142Y-126889523D01*
X189302142Y-126841904D01*
X189254523Y-126746666D01*
X189159285Y-126699047D01*
X189016428Y-126699047D01*
X188921190Y-126651428D01*
X188873571Y-126556190D01*
X188873571Y-126508571D01*
X188921190Y-126413333D01*
X189016428Y-126365714D01*
X189159285Y-126365714D01*
X189254523Y-126413333D01*
X190111666Y-126984761D02*
X190016428Y-127032380D01*
X189825952Y-127032380D01*
X189730714Y-126984761D01*
X189683095Y-126889523D01*
X189683095Y-126508571D01*
X189730714Y-126413333D01*
X189825952Y-126365714D01*
X190016428Y-126365714D01*
X190111666Y-126413333D01*
X190159285Y-126508571D01*
X190159285Y-126603809D01*
X189683095Y-126699047D01*
X191016428Y-127032380D02*
X191016428Y-126032380D01*
X191016428Y-126984761D02*
X190921190Y-127032380D01*
X190730714Y-127032380D01*
X190635476Y-126984761D01*
X190587857Y-126937142D01*
X190540238Y-126841904D01*
X190540238Y-126556190D01*
X190587857Y-126460952D01*
X190635476Y-126413333D01*
X190730714Y-126365714D01*
X190921190Y-126365714D01*
X191016428Y-126413333D01*
X192683095Y-126365714D02*
X192683095Y-127032380D01*
X192254523Y-126365714D02*
X192254523Y-126889523D01*
X192302142Y-126984761D01*
X192397380Y-127032380D01*
X192540238Y-127032380D01*
X192635476Y-126984761D01*
X192683095Y-126937142D01*
X193159285Y-126365714D02*
X193159285Y-127032380D01*
X193159285Y-126460952D02*
X193206904Y-126413333D01*
X193302142Y-126365714D01*
X193445000Y-126365714D01*
X193540238Y-126413333D01*
X193587857Y-126508571D01*
X193587857Y-127032380D01*
X194492619Y-127032380D02*
X194492619Y-126032380D01*
X194492619Y-126984761D02*
X194397380Y-127032380D01*
X194206904Y-127032380D01*
X194111666Y-126984761D01*
X194064047Y-126937142D01*
X194016428Y-126841904D01*
X194016428Y-126556190D01*
X194064047Y-126460952D01*
X194111666Y-126413333D01*
X194206904Y-126365714D01*
X194397380Y-126365714D01*
X194492619Y-126413333D01*
X195349761Y-126984761D02*
X195254523Y-127032380D01*
X195064047Y-127032380D01*
X194968809Y-126984761D01*
X194921190Y-126889523D01*
X194921190Y-126508571D01*
X194968809Y-126413333D01*
X195064047Y-126365714D01*
X195254523Y-126365714D01*
X195349761Y-126413333D01*
X195397380Y-126508571D01*
X195397380Y-126603809D01*
X194921190Y-126699047D01*
X195825952Y-127032380D02*
X195825952Y-126365714D01*
X195825952Y-126556190D02*
X195873571Y-126460952D01*
X195921190Y-126413333D01*
X196016428Y-126365714D01*
X196111666Y-126365714D01*
X197064047Y-126365714D02*
X197445000Y-126365714D01*
X197206904Y-126032380D02*
X197206904Y-126889523D01*
X197254523Y-126984761D01*
X197349761Y-127032380D01*
X197445000Y-127032380D01*
X197778333Y-127032380D02*
X197778333Y-126032380D01*
X198206904Y-127032380D02*
X198206904Y-126508571D01*
X198159285Y-126413333D01*
X198064047Y-126365714D01*
X197921190Y-126365714D01*
X197825952Y-126413333D01*
X197778333Y-126460952D01*
X199064047Y-126984761D02*
X198968809Y-127032380D01*
X198778333Y-127032380D01*
X198683095Y-126984761D01*
X198635476Y-126889523D01*
X198635476Y-126508571D01*
X198683095Y-126413333D01*
X198778333Y-126365714D01*
X198968809Y-126365714D01*
X199064047Y-126413333D01*
X199111666Y-126508571D01*
X199111666Y-126603809D01*
X198635476Y-126699047D01*
X200825952Y-126080000D02*
X200730714Y-126032380D01*
X200587857Y-126032380D01*
X200445000Y-126080000D01*
X200349761Y-126175238D01*
X200302142Y-126270476D01*
X200254523Y-126460952D01*
X200254523Y-126603809D01*
X200302142Y-126794285D01*
X200349761Y-126889523D01*
X200445000Y-126984761D01*
X200587857Y-127032380D01*
X200683095Y-127032380D01*
X200825952Y-126984761D01*
X200873571Y-126937142D01*
X200873571Y-126603809D01*
X200683095Y-126603809D01*
X201302142Y-127032380D02*
X201302142Y-126032380D01*
X201683095Y-126032380D01*
X201778333Y-126080000D01*
X201825952Y-126127619D01*
X201873571Y-126222857D01*
X201873571Y-126365714D01*
X201825952Y-126460952D01*
X201778333Y-126508571D01*
X201683095Y-126556190D01*
X201302142Y-126556190D01*
X202778333Y-127032380D02*
X202302142Y-127032380D01*
X202302142Y-126032380D01*
X203778333Y-126365714D02*
X204016428Y-127032380D01*
X204254523Y-126365714D01*
X204540238Y-126032380D02*
X205159285Y-126032380D01*
X204825952Y-126413333D01*
X204968809Y-126413333D01*
X205064047Y-126460952D01*
X205111666Y-126508571D01*
X205159285Y-126603809D01*
X205159285Y-126841904D01*
X205111666Y-126937142D01*
X205064047Y-126984761D01*
X204968809Y-127032380D01*
X204683095Y-127032380D01*
X204587857Y-126984761D01*
X204540238Y-126937142D01*
%TO.C,R3*%
X211102380Y-106846666D02*
X210626190Y-107180000D01*
X211102380Y-107418095D02*
X210102380Y-107418095D01*
X210102380Y-107037142D01*
X210150000Y-106941904D01*
X210197619Y-106894285D01*
X210292857Y-106846666D01*
X210435714Y-106846666D01*
X210530952Y-106894285D01*
X210578571Y-106941904D01*
X210626190Y-107037142D01*
X210626190Y-107418095D01*
X210102380Y-106513333D02*
X210102380Y-105894285D01*
X210483333Y-106227619D01*
X210483333Y-106084761D01*
X210530952Y-105989523D01*
X210578571Y-105941904D01*
X210673809Y-105894285D01*
X210911904Y-105894285D01*
X211007142Y-105941904D01*
X211054761Y-105989523D01*
X211102380Y-106084761D01*
X211102380Y-106370476D01*
X211054761Y-106465714D01*
X211007142Y-106513333D01*
%TO.C,C1*%
X174387142Y-78946666D02*
X174434761Y-78994285D01*
X174482380Y-79137142D01*
X174482380Y-79232380D01*
X174434761Y-79375238D01*
X174339523Y-79470476D01*
X174244285Y-79518095D01*
X174053809Y-79565714D01*
X173910952Y-79565714D01*
X173720476Y-79518095D01*
X173625238Y-79470476D01*
X173530000Y-79375238D01*
X173482380Y-79232380D01*
X173482380Y-79137142D01*
X173530000Y-78994285D01*
X173577619Y-78946666D01*
X174482380Y-77994285D02*
X174482380Y-78565714D01*
X174482380Y-78280000D02*
X173482380Y-78280000D01*
X173625238Y-78375238D01*
X173720476Y-78470476D01*
X173768095Y-78565714D01*
%TO.C,U2*%
X117772380Y-56387904D02*
X118581904Y-56387904D01*
X118677142Y-56340285D01*
X118724761Y-56292666D01*
X118772380Y-56197428D01*
X118772380Y-56006952D01*
X118724761Y-55911714D01*
X118677142Y-55864095D01*
X118581904Y-55816476D01*
X117772380Y-55816476D01*
X117867619Y-55387904D02*
X117820000Y-55340285D01*
X117772380Y-55245047D01*
X117772380Y-55006952D01*
X117820000Y-54911714D01*
X117867619Y-54864095D01*
X117962857Y-54816476D01*
X118058095Y-54816476D01*
X118200952Y-54864095D01*
X118772380Y-55435523D01*
X118772380Y-54816476D01*
%TO.C,R2*%
X187793333Y-34912380D02*
X187460000Y-34436190D01*
X187221904Y-34912380D02*
X187221904Y-33912380D01*
X187602857Y-33912380D01*
X187698095Y-33960000D01*
X187745714Y-34007619D01*
X187793333Y-34102857D01*
X187793333Y-34245714D01*
X187745714Y-34340952D01*
X187698095Y-34388571D01*
X187602857Y-34436190D01*
X187221904Y-34436190D01*
X188174285Y-34007619D02*
X188221904Y-33960000D01*
X188317142Y-33912380D01*
X188555238Y-33912380D01*
X188650476Y-33960000D01*
X188698095Y-34007619D01*
X188745714Y-34102857D01*
X188745714Y-34198095D01*
X188698095Y-34340952D01*
X188126666Y-34912380D01*
X188745714Y-34912380D01*
%TO.C,D5*%
X208732380Y-88368095D02*
X207732380Y-88368095D01*
X207732380Y-88130000D01*
X207780000Y-87987142D01*
X207875238Y-87891904D01*
X207970476Y-87844285D01*
X208160952Y-87796666D01*
X208303809Y-87796666D01*
X208494285Y-87844285D01*
X208589523Y-87891904D01*
X208684761Y-87987142D01*
X208732380Y-88130000D01*
X208732380Y-88368095D01*
X207732380Y-86891904D02*
X207732380Y-87368095D01*
X208208571Y-87415714D01*
X208160952Y-87368095D01*
X208113333Y-87272857D01*
X208113333Y-87034761D01*
X208160952Y-86939523D01*
X208208571Y-86891904D01*
X208303809Y-86844285D01*
X208541904Y-86844285D01*
X208637142Y-86891904D01*
X208684761Y-86939523D01*
X208732380Y-87034761D01*
X208732380Y-87272857D01*
X208684761Y-87368095D01*
X208637142Y-87415714D01*
X208732380Y-99956904D02*
X207732380Y-99956904D01*
X208732380Y-99385476D02*
X208160952Y-99814047D01*
X207732380Y-99385476D02*
X208303809Y-99956904D01*
%TO.C,D6*%
X206192380Y-88373095D02*
X205192380Y-88373095D01*
X205192380Y-88135000D01*
X205240000Y-87992142D01*
X205335238Y-87896904D01*
X205430476Y-87849285D01*
X205620952Y-87801666D01*
X205763809Y-87801666D01*
X205954285Y-87849285D01*
X206049523Y-87896904D01*
X206144761Y-87992142D01*
X206192380Y-88135000D01*
X206192380Y-88373095D01*
X205192380Y-86944523D02*
X205192380Y-87135000D01*
X205240000Y-87230238D01*
X205287619Y-87277857D01*
X205430476Y-87373095D01*
X205620952Y-87420714D01*
X206001904Y-87420714D01*
X206097142Y-87373095D01*
X206144761Y-87325476D01*
X206192380Y-87230238D01*
X206192380Y-87039761D01*
X206144761Y-86944523D01*
X206097142Y-86896904D01*
X206001904Y-86849285D01*
X205763809Y-86849285D01*
X205668571Y-86896904D01*
X205620952Y-86944523D01*
X205573333Y-87039761D01*
X205573333Y-87230238D01*
X205620952Y-87325476D01*
X205668571Y-87373095D01*
X205763809Y-87420714D01*
X206192380Y-99961904D02*
X205192380Y-99961904D01*
X206192380Y-99390476D02*
X205620952Y-99819047D01*
X205192380Y-99390476D02*
X205763809Y-99961904D01*
%TO.C,Q1*%
X175172619Y-122650238D02*
X175125000Y-122745476D01*
X175029761Y-122840714D01*
X174886904Y-122983571D01*
X174839285Y-123078809D01*
X174839285Y-123174047D01*
X175077380Y-123126428D02*
X175029761Y-123221666D01*
X174934523Y-123316904D01*
X174744047Y-123364523D01*
X174410714Y-123364523D01*
X174220238Y-123316904D01*
X174125000Y-123221666D01*
X174077380Y-123126428D01*
X174077380Y-122935952D01*
X174125000Y-122840714D01*
X174220238Y-122745476D01*
X174410714Y-122697857D01*
X174744047Y-122697857D01*
X174934523Y-122745476D01*
X175029761Y-122840714D01*
X175077380Y-122935952D01*
X175077380Y-123126428D01*
X175077380Y-121745476D02*
X175077380Y-122316904D01*
X175077380Y-122031190D02*
X174077380Y-122031190D01*
X174220238Y-122126428D01*
X174315476Y-122221666D01*
X174363095Y-122316904D01*
%TO.C,D2*%
X185872380Y-112503095D02*
X184872380Y-112503095D01*
X184872380Y-112265000D01*
X184920000Y-112122142D01*
X185015238Y-112026904D01*
X185110476Y-111979285D01*
X185300952Y-111931666D01*
X185443809Y-111931666D01*
X185634285Y-111979285D01*
X185729523Y-112026904D01*
X185824761Y-112122142D01*
X185872380Y-112265000D01*
X185872380Y-112503095D01*
X184967619Y-111550714D02*
X184920000Y-111503095D01*
X184872380Y-111407857D01*
X184872380Y-111169761D01*
X184920000Y-111074523D01*
X184967619Y-111026904D01*
X185062857Y-110979285D01*
X185158095Y-110979285D01*
X185300952Y-111026904D01*
X185872380Y-111598333D01*
X185872380Y-110979285D01*
%TO.C,C6*%
X115967142Y-86311666D02*
X116014761Y-86359285D01*
X116062380Y-86502142D01*
X116062380Y-86597380D01*
X116014761Y-86740238D01*
X115919523Y-86835476D01*
X115824285Y-86883095D01*
X115633809Y-86930714D01*
X115490952Y-86930714D01*
X115300476Y-86883095D01*
X115205238Y-86835476D01*
X115110000Y-86740238D01*
X115062380Y-86597380D01*
X115062380Y-86502142D01*
X115110000Y-86359285D01*
X115157619Y-86311666D01*
X115062380Y-85454523D02*
X115062380Y-85645000D01*
X115110000Y-85740238D01*
X115157619Y-85787857D01*
X115300476Y-85883095D01*
X115490952Y-85930714D01*
X115871904Y-85930714D01*
X115967142Y-85883095D01*
X116014761Y-85835476D01*
X116062380Y-85740238D01*
X116062380Y-85549761D01*
X116014761Y-85454523D01*
X115967142Y-85406904D01*
X115871904Y-85359285D01*
X115633809Y-85359285D01*
X115538571Y-85406904D01*
X115490952Y-85454523D01*
X115443333Y-85549761D01*
X115443333Y-85740238D01*
X115490952Y-85835476D01*
X115538571Y-85883095D01*
X115633809Y-85930714D01*
%TO.C,U4*%
X118197380Y-80771904D02*
X119006904Y-80771904D01*
X119102142Y-80724285D01*
X119149761Y-80676666D01*
X119197380Y-80581428D01*
X119197380Y-80390952D01*
X119149761Y-80295714D01*
X119102142Y-80248095D01*
X119006904Y-80200476D01*
X118197380Y-80200476D01*
X118530714Y-79295714D02*
X119197380Y-79295714D01*
X118149761Y-79533809D02*
X118864047Y-79771904D01*
X118864047Y-79152857D01*
%TO.C,U6*%
X179997380Y-61711904D02*
X180806904Y-61711904D01*
X180902142Y-61664285D01*
X180949761Y-61616666D01*
X180997380Y-61521428D01*
X180997380Y-61330952D01*
X180949761Y-61235714D01*
X180902142Y-61188095D01*
X180806904Y-61140476D01*
X179997380Y-61140476D01*
X179997380Y-60235714D02*
X179997380Y-60426190D01*
X180045000Y-60521428D01*
X180092619Y-60569047D01*
X180235476Y-60664285D01*
X180425952Y-60711904D01*
X180806904Y-60711904D01*
X180902142Y-60664285D01*
X180949761Y-60616666D01*
X180997380Y-60521428D01*
X180997380Y-60330952D01*
X180949761Y-60235714D01*
X180902142Y-60188095D01*
X180806904Y-60140476D01*
X180568809Y-60140476D01*
X180473571Y-60188095D01*
X180425952Y-60235714D01*
X180378333Y-60330952D01*
X180378333Y-60521428D01*
X180425952Y-60616666D01*
X180473571Y-60664285D01*
X180568809Y-60711904D01*
X199897380Y-63592857D02*
X199897380Y-62926190D01*
X200897380Y-63354761D01*
X200230714Y-62116666D02*
X200897380Y-62116666D01*
X199849761Y-62354761D02*
X200564047Y-62592857D01*
X200564047Y-61973809D01*
X200897380Y-61116666D02*
X200897380Y-61592857D01*
X199897380Y-61592857D01*
X200849761Y-60830952D02*
X200897380Y-60688095D01*
X200897380Y-60450000D01*
X200849761Y-60354761D01*
X200802142Y-60307142D01*
X200706904Y-60259523D01*
X200611666Y-60259523D01*
X200516428Y-60307142D01*
X200468809Y-60354761D01*
X200421190Y-60450000D01*
X200373571Y-60640476D01*
X200325952Y-60735714D01*
X200278333Y-60783333D01*
X200183095Y-60830952D01*
X200087857Y-60830952D01*
X199992619Y-60783333D01*
X199945000Y-60735714D01*
X199897380Y-60640476D01*
X199897380Y-60402380D01*
X199945000Y-60259523D01*
X199897380Y-59640476D02*
X199897380Y-59545238D01*
X199945000Y-59450000D01*
X199992619Y-59402380D01*
X200087857Y-59354761D01*
X200278333Y-59307142D01*
X200516428Y-59307142D01*
X200706904Y-59354761D01*
X200802142Y-59402380D01*
X200849761Y-59450000D01*
X200897380Y-59545238D01*
X200897380Y-59640476D01*
X200849761Y-59735714D01*
X200802142Y-59783333D01*
X200706904Y-59830952D01*
X200516428Y-59878571D01*
X200278333Y-59878571D01*
X200087857Y-59830952D01*
X199992619Y-59783333D01*
X199945000Y-59735714D01*
X199897380Y-59640476D01*
X199897380Y-58688095D02*
X199897380Y-58592857D01*
X199945000Y-58497619D01*
X199992619Y-58450000D01*
X200087857Y-58402380D01*
X200278333Y-58354761D01*
X200516428Y-58354761D01*
X200706904Y-58402380D01*
X200802142Y-58450000D01*
X200849761Y-58497619D01*
X200897380Y-58592857D01*
X200897380Y-58688095D01*
X200849761Y-58783333D01*
X200802142Y-58830952D01*
X200706904Y-58878571D01*
X200516428Y-58926190D01*
X200278333Y-58926190D01*
X200087857Y-58878571D01*
X199992619Y-58830952D01*
X199945000Y-58783333D01*
X199897380Y-58688095D01*
%TO.C,C5*%
X174387142Y-57356666D02*
X174434761Y-57404285D01*
X174482380Y-57547142D01*
X174482380Y-57642380D01*
X174434761Y-57785238D01*
X174339523Y-57880476D01*
X174244285Y-57928095D01*
X174053809Y-57975714D01*
X173910952Y-57975714D01*
X173720476Y-57928095D01*
X173625238Y-57880476D01*
X173530000Y-57785238D01*
X173482380Y-57642380D01*
X173482380Y-57547142D01*
X173530000Y-57404285D01*
X173577619Y-57356666D01*
X173482380Y-56451904D02*
X173482380Y-56928095D01*
X173958571Y-56975714D01*
X173910952Y-56928095D01*
X173863333Y-56832857D01*
X173863333Y-56594761D01*
X173910952Y-56499523D01*
X173958571Y-56451904D01*
X174053809Y-56404285D01*
X174291904Y-56404285D01*
X174387142Y-56451904D01*
X174434761Y-56499523D01*
X174482380Y-56594761D01*
X174482380Y-56832857D01*
X174434761Y-56928095D01*
X174387142Y-56975714D01*
%TO.C,U10*%
X179997380Y-46948095D02*
X180806904Y-46948095D01*
X180902142Y-46900476D01*
X180949761Y-46852857D01*
X180997380Y-46757619D01*
X180997380Y-46567142D01*
X180949761Y-46471904D01*
X180902142Y-46424285D01*
X180806904Y-46376666D01*
X179997380Y-46376666D01*
X180997380Y-45376666D02*
X180997380Y-45948095D01*
X180997380Y-45662380D02*
X179997380Y-45662380D01*
X180140238Y-45757619D01*
X180235476Y-45852857D01*
X180283095Y-45948095D01*
X179997380Y-44757619D02*
X179997380Y-44662380D01*
X180045000Y-44567142D01*
X180092619Y-44519523D01*
X180187857Y-44471904D01*
X180378333Y-44424285D01*
X180616428Y-44424285D01*
X180806904Y-44471904D01*
X180902142Y-44519523D01*
X180949761Y-44567142D01*
X180997380Y-44662380D01*
X180997380Y-44757619D01*
X180949761Y-44852857D01*
X180902142Y-44900476D01*
X180806904Y-44948095D01*
X180616428Y-44995714D01*
X180378333Y-44995714D01*
X180187857Y-44948095D01*
X180092619Y-44900476D01*
X180045000Y-44852857D01*
X179997380Y-44757619D01*
X199897380Y-48352857D02*
X199897380Y-47686190D01*
X200897380Y-48114761D01*
X200230714Y-46876666D02*
X200897380Y-46876666D01*
X199849761Y-47114761D02*
X200564047Y-47352857D01*
X200564047Y-46733809D01*
X200897380Y-45876666D02*
X200897380Y-46352857D01*
X199897380Y-46352857D01*
X200849761Y-45590952D02*
X200897380Y-45448095D01*
X200897380Y-45210000D01*
X200849761Y-45114761D01*
X200802142Y-45067142D01*
X200706904Y-45019523D01*
X200611666Y-45019523D01*
X200516428Y-45067142D01*
X200468809Y-45114761D01*
X200421190Y-45210000D01*
X200373571Y-45400476D01*
X200325952Y-45495714D01*
X200278333Y-45543333D01*
X200183095Y-45590952D01*
X200087857Y-45590952D01*
X199992619Y-45543333D01*
X199945000Y-45495714D01*
X199897380Y-45400476D01*
X199897380Y-45162380D01*
X199945000Y-45019523D01*
X199897380Y-44400476D02*
X199897380Y-44305238D01*
X199945000Y-44210000D01*
X199992619Y-44162380D01*
X200087857Y-44114761D01*
X200278333Y-44067142D01*
X200516428Y-44067142D01*
X200706904Y-44114761D01*
X200802142Y-44162380D01*
X200849761Y-44210000D01*
X200897380Y-44305238D01*
X200897380Y-44400476D01*
X200849761Y-44495714D01*
X200802142Y-44543333D01*
X200706904Y-44590952D01*
X200516428Y-44638571D01*
X200278333Y-44638571D01*
X200087857Y-44590952D01*
X199992619Y-44543333D01*
X199945000Y-44495714D01*
X199897380Y-44400476D01*
X199897380Y-43448095D02*
X199897380Y-43352857D01*
X199945000Y-43257619D01*
X199992619Y-43210000D01*
X200087857Y-43162380D01*
X200278333Y-43114761D01*
X200516428Y-43114761D01*
X200706904Y-43162380D01*
X200802142Y-43210000D01*
X200849761Y-43257619D01*
X200897380Y-43352857D01*
X200897380Y-43448095D01*
X200849761Y-43543333D01*
X200802142Y-43590952D01*
X200706904Y-43638571D01*
X200516428Y-43686190D01*
X200278333Y-43686190D01*
X200087857Y-43638571D01*
X199992619Y-43590952D01*
X199945000Y-43543333D01*
X199897380Y-43448095D01*
%TO.C,D1*%
X183332380Y-112498095D02*
X182332380Y-112498095D01*
X182332380Y-112260000D01*
X182380000Y-112117142D01*
X182475238Y-112021904D01*
X182570476Y-111974285D01*
X182760952Y-111926666D01*
X182903809Y-111926666D01*
X183094285Y-111974285D01*
X183189523Y-112021904D01*
X183284761Y-112117142D01*
X183332380Y-112260000D01*
X183332380Y-112498095D01*
X183332380Y-110974285D02*
X183332380Y-111545714D01*
X183332380Y-111260000D02*
X182332380Y-111260000D01*
X182475238Y-111355238D01*
X182570476Y-111450476D01*
X182618095Y-111545714D01*
X181427380Y-101861904D02*
X180427380Y-101861904D01*
X181427380Y-101290476D02*
X180855952Y-101719047D01*
X180427380Y-101290476D02*
X180998809Y-101861904D01*
%TO.C,C3*%
X174347142Y-94186666D02*
X174394761Y-94234285D01*
X174442380Y-94377142D01*
X174442380Y-94472380D01*
X174394761Y-94615238D01*
X174299523Y-94710476D01*
X174204285Y-94758095D01*
X174013809Y-94805714D01*
X173870952Y-94805714D01*
X173680476Y-94758095D01*
X173585238Y-94710476D01*
X173490000Y-94615238D01*
X173442380Y-94472380D01*
X173442380Y-94377142D01*
X173490000Y-94234285D01*
X173537619Y-94186666D01*
X173442380Y-93853333D02*
X173442380Y-93234285D01*
X173823333Y-93567619D01*
X173823333Y-93424761D01*
X173870952Y-93329523D01*
X173918571Y-93281904D01*
X174013809Y-93234285D01*
X174251904Y-93234285D01*
X174347142Y-93281904D01*
X174394761Y-93329523D01*
X174442380Y-93424761D01*
X174442380Y-93710476D01*
X174394761Y-93805714D01*
X174347142Y-93853333D01*
%TO.C,C4*%
X113427142Y-57381666D02*
X113474761Y-57429285D01*
X113522380Y-57572142D01*
X113522380Y-57667380D01*
X113474761Y-57810238D01*
X113379523Y-57905476D01*
X113284285Y-57953095D01*
X113093809Y-58000714D01*
X112950952Y-58000714D01*
X112760476Y-57953095D01*
X112665238Y-57905476D01*
X112570000Y-57810238D01*
X112522380Y-57667380D01*
X112522380Y-57572142D01*
X112570000Y-57429285D01*
X112617619Y-57381666D01*
X112855714Y-56524523D02*
X113522380Y-56524523D01*
X112474761Y-56762619D02*
X113189047Y-57000714D01*
X113189047Y-56381666D01*
%TO.C,U8*%
X119042380Y-120141904D02*
X119851904Y-120141904D01*
X119947142Y-120094285D01*
X119994761Y-120046666D01*
X120042380Y-119951428D01*
X120042380Y-119760952D01*
X119994761Y-119665714D01*
X119947142Y-119618095D01*
X119851904Y-119570476D01*
X119042380Y-119570476D01*
X119470952Y-118951428D02*
X119423333Y-119046666D01*
X119375714Y-119094285D01*
X119280476Y-119141904D01*
X119232857Y-119141904D01*
X119137619Y-119094285D01*
X119090000Y-119046666D01*
X119042380Y-118951428D01*
X119042380Y-118760952D01*
X119090000Y-118665714D01*
X119137619Y-118618095D01*
X119232857Y-118570476D01*
X119280476Y-118570476D01*
X119375714Y-118618095D01*
X119423333Y-118665714D01*
X119470952Y-118760952D01*
X119470952Y-118951428D01*
X119518571Y-119046666D01*
X119566190Y-119094285D01*
X119661428Y-119141904D01*
X119851904Y-119141904D01*
X119947142Y-119094285D01*
X119994761Y-119046666D01*
X120042380Y-118951428D01*
X120042380Y-118760952D01*
X119994761Y-118665714D01*
X119947142Y-118618095D01*
X119851904Y-118570476D01*
X119661428Y-118570476D01*
X119566190Y-118618095D01*
X119518571Y-118665714D01*
X119470952Y-118760952D01*
X157027619Y-121594285D02*
X156980000Y-121546666D01*
X156932380Y-121451428D01*
X156932380Y-121213333D01*
X156980000Y-121118095D01*
X157027619Y-121070476D01*
X157122857Y-121022857D01*
X157218095Y-121022857D01*
X157360952Y-121070476D01*
X157932380Y-121641904D01*
X157932380Y-121022857D01*
X156932380Y-120689523D02*
X156932380Y-120022857D01*
X157932380Y-120451428D01*
X157837142Y-119070476D02*
X157884761Y-119118095D01*
X157932380Y-119260952D01*
X157932380Y-119356190D01*
X157884761Y-119499047D01*
X157789523Y-119594285D01*
X157694285Y-119641904D01*
X157503809Y-119689523D01*
X157360952Y-119689523D01*
X157170476Y-119641904D01*
X157075238Y-119594285D01*
X156980000Y-119499047D01*
X156932380Y-119356190D01*
X156932380Y-119260952D01*
X156980000Y-119118095D01*
X157027619Y-119070476D01*
X156932380Y-118213333D02*
X156932380Y-118403809D01*
X156980000Y-118499047D01*
X157027619Y-118546666D01*
X157170476Y-118641904D01*
X157360952Y-118689523D01*
X157741904Y-118689523D01*
X157837142Y-118641904D01*
X157884761Y-118594285D01*
X157932380Y-118499047D01*
X157932380Y-118308571D01*
X157884761Y-118213333D01*
X157837142Y-118165714D01*
X157741904Y-118118095D01*
X157503809Y-118118095D01*
X157408571Y-118165714D01*
X157360952Y-118213333D01*
X157313333Y-118308571D01*
X157313333Y-118499047D01*
X157360952Y-118594285D01*
X157408571Y-118641904D01*
X157503809Y-118689523D01*
X157265714Y-117260952D02*
X157932380Y-117260952D01*
X156884761Y-117499047D02*
X157599047Y-117737142D01*
X157599047Y-117118095D01*
%TO.C,RN1*%
X130119523Y-73236380D02*
X129786190Y-72760190D01*
X129548095Y-73236380D02*
X129548095Y-72236380D01*
X129929047Y-72236380D01*
X130024285Y-72284000D01*
X130071904Y-72331619D01*
X130119523Y-72426857D01*
X130119523Y-72569714D01*
X130071904Y-72664952D01*
X130024285Y-72712571D01*
X129929047Y-72760190D01*
X129548095Y-72760190D01*
X130548095Y-73236380D02*
X130548095Y-72236380D01*
X131119523Y-73236380D01*
X131119523Y-72236380D01*
X132119523Y-73236380D02*
X131548095Y-73236380D01*
X131833809Y-73236380D02*
X131833809Y-72236380D01*
X131738571Y-72379238D01*
X131643333Y-72474476D01*
X131548095Y-72522095D01*
%TO.C,U9*%
X179992380Y-94726904D02*
X180801904Y-94726904D01*
X180897142Y-94679285D01*
X180944761Y-94631666D01*
X180992380Y-94536428D01*
X180992380Y-94345952D01*
X180944761Y-94250714D01*
X180897142Y-94203095D01*
X180801904Y-94155476D01*
X179992380Y-94155476D01*
X180992380Y-93631666D02*
X180992380Y-93441190D01*
X180944761Y-93345952D01*
X180897142Y-93298333D01*
X180754285Y-93203095D01*
X180563809Y-93155476D01*
X180182857Y-93155476D01*
X180087619Y-93203095D01*
X180040000Y-93250714D01*
X179992380Y-93345952D01*
X179992380Y-93536428D01*
X180040000Y-93631666D01*
X180087619Y-93679285D01*
X180182857Y-93726904D01*
X180420952Y-93726904D01*
X180516190Y-93679285D01*
X180563809Y-93631666D01*
X180611428Y-93536428D01*
X180611428Y-93345952D01*
X180563809Y-93250714D01*
X180516190Y-93203095D01*
X180420952Y-93155476D01*
X202432380Y-96622857D02*
X202432380Y-95956190D01*
X203432380Y-96384761D01*
X202765714Y-95146666D02*
X203432380Y-95146666D01*
X202384761Y-95384761D02*
X203099047Y-95622857D01*
X203099047Y-95003809D01*
X203432380Y-94146666D02*
X203432380Y-94622857D01*
X202432380Y-94622857D01*
X203384761Y-93860952D02*
X203432380Y-93718095D01*
X203432380Y-93480000D01*
X203384761Y-93384761D01*
X203337142Y-93337142D01*
X203241904Y-93289523D01*
X203146666Y-93289523D01*
X203051428Y-93337142D01*
X203003809Y-93384761D01*
X202956190Y-93480000D01*
X202908571Y-93670476D01*
X202860952Y-93765714D01*
X202813333Y-93813333D01*
X202718095Y-93860952D01*
X202622857Y-93860952D01*
X202527619Y-93813333D01*
X202480000Y-93765714D01*
X202432380Y-93670476D01*
X202432380Y-93432380D01*
X202480000Y-93289523D01*
X202765714Y-92432380D02*
X203432380Y-92432380D01*
X202384761Y-92670476D02*
X203099047Y-92908571D01*
X203099047Y-92289523D01*
X202527619Y-91956190D02*
X202480000Y-91908571D01*
X202432380Y-91813333D01*
X202432380Y-91575238D01*
X202480000Y-91480000D01*
X202527619Y-91432380D01*
X202622857Y-91384761D01*
X202718095Y-91384761D01*
X202860952Y-91432380D01*
X203432380Y-92003809D01*
X203432380Y-91384761D01*
%TO.C,D4*%
X190952380Y-112498095D02*
X189952380Y-112498095D01*
X189952380Y-112260000D01*
X190000000Y-112117142D01*
X190095238Y-112021904D01*
X190190476Y-111974285D01*
X190380952Y-111926666D01*
X190523809Y-111926666D01*
X190714285Y-111974285D01*
X190809523Y-112021904D01*
X190904761Y-112117142D01*
X190952380Y-112260000D01*
X190952380Y-112498095D01*
X190285714Y-111069523D02*
X190952380Y-111069523D01*
X189904761Y-111307619D02*
X190619047Y-111545714D01*
X190619047Y-110926666D01*
%TO.C,C2*%
X162322142Y-119586666D02*
X162369761Y-119634285D01*
X162417380Y-119777142D01*
X162417380Y-119872380D01*
X162369761Y-120015238D01*
X162274523Y-120110476D01*
X162179285Y-120158095D01*
X161988809Y-120205714D01*
X161845952Y-120205714D01*
X161655476Y-120158095D01*
X161560238Y-120110476D01*
X161465000Y-120015238D01*
X161417380Y-119872380D01*
X161417380Y-119777142D01*
X161465000Y-119634285D01*
X161512619Y-119586666D01*
X161512619Y-119205714D02*
X161465000Y-119158095D01*
X161417380Y-119062857D01*
X161417380Y-118824761D01*
X161465000Y-118729523D01*
X161512619Y-118681904D01*
X161607857Y-118634285D01*
X161703095Y-118634285D01*
X161845952Y-118681904D01*
X162417380Y-119253333D01*
X162417380Y-118634285D01*
%TO.C,D3*%
X188412380Y-112498095D02*
X187412380Y-112498095D01*
X187412380Y-112260000D01*
X187460000Y-112117142D01*
X187555238Y-112021904D01*
X187650476Y-111974285D01*
X187840952Y-111926666D01*
X187983809Y-111926666D01*
X188174285Y-111974285D01*
X188269523Y-112021904D01*
X188364761Y-112117142D01*
X188412380Y-112260000D01*
X188412380Y-112498095D01*
X187412380Y-111593333D02*
X187412380Y-110974285D01*
X187793333Y-111307619D01*
X187793333Y-111164761D01*
X187840952Y-111069523D01*
X187888571Y-111021904D01*
X187983809Y-110974285D01*
X188221904Y-110974285D01*
X188317142Y-111021904D01*
X188364761Y-111069523D01*
X188412380Y-111164761D01*
X188412380Y-111450476D01*
X188364761Y-111545714D01*
X188317142Y-111593333D01*
%TO.C,R1*%
X168897380Y-119546666D02*
X168421190Y-119880000D01*
X168897380Y-120118095D02*
X167897380Y-120118095D01*
X167897380Y-119737142D01*
X167945000Y-119641904D01*
X167992619Y-119594285D01*
X168087857Y-119546666D01*
X168230714Y-119546666D01*
X168325952Y-119594285D01*
X168373571Y-119641904D01*
X168421190Y-119737142D01*
X168421190Y-120118095D01*
X168897380Y-118594285D02*
X168897380Y-119165714D01*
X168897380Y-118880000D02*
X167897380Y-118880000D01*
X168040238Y-118975238D01*
X168135476Y-119070476D01*
X168183095Y-119165714D01*
%TO.C,U7*%
X179997380Y-78221904D02*
X180806904Y-78221904D01*
X180902142Y-78174285D01*
X180949761Y-78126666D01*
X180997380Y-78031428D01*
X180997380Y-77840952D01*
X180949761Y-77745714D01*
X180902142Y-77698095D01*
X180806904Y-77650476D01*
X179997380Y-77650476D01*
X179997380Y-77269523D02*
X179997380Y-76602857D01*
X180997380Y-77031428D01*
X199897380Y-80102857D02*
X199897380Y-79436190D01*
X200897380Y-79864761D01*
X200230714Y-78626666D02*
X200897380Y-78626666D01*
X199849761Y-78864761D02*
X200564047Y-79102857D01*
X200564047Y-78483809D01*
X200897380Y-77626666D02*
X200897380Y-78102857D01*
X199897380Y-78102857D01*
X200849761Y-77340952D02*
X200897380Y-77198095D01*
X200897380Y-76960000D01*
X200849761Y-76864761D01*
X200802142Y-76817142D01*
X200706904Y-76769523D01*
X200611666Y-76769523D01*
X200516428Y-76817142D01*
X200468809Y-76864761D01*
X200421190Y-76960000D01*
X200373571Y-77150476D01*
X200325952Y-77245714D01*
X200278333Y-77293333D01*
X200183095Y-77340952D01*
X200087857Y-77340952D01*
X199992619Y-77293333D01*
X199945000Y-77245714D01*
X199897380Y-77150476D01*
X199897380Y-76912380D01*
X199945000Y-76769523D01*
X200897380Y-75817142D02*
X200897380Y-76388571D01*
X200897380Y-76102857D02*
X199897380Y-76102857D01*
X200040238Y-76198095D01*
X200135476Y-76293333D01*
X200183095Y-76388571D01*
X200897380Y-74864761D02*
X200897380Y-75436190D01*
X200897380Y-75150476D02*
X199897380Y-75150476D01*
X200040238Y-75245714D01*
X200135476Y-75340952D01*
X200183095Y-75436190D01*
D11*
%TO.C,R3*%
X209650000Y-103410000D02*
X206910000Y-103410000D01*
X208280000Y-110720000D02*
X208280000Y-109950000D01*
X208280000Y-102640000D02*
X208280000Y-103410000D01*
X206910000Y-103410000D02*
X206910000Y-109950000D01*
X206910000Y-109950000D02*
X209650000Y-109950000D01*
X209650000Y-109950000D02*
X209650000Y-103410000D01*
%TO.C,C1*%
X175160000Y-81400000D02*
X175475000Y-81400000D01*
X177585000Y-76160000D02*
X177900000Y-76160000D01*
X175160000Y-81400000D02*
X175160000Y-76160000D01*
X177585000Y-81400000D02*
X177900000Y-81400000D01*
X175160000Y-76160000D02*
X175475000Y-76160000D01*
X177900000Y-81400000D02*
X177900000Y-76160000D01*
%TO.C,U2*%
X119320000Y-61940000D02*
X170240000Y-61940000D01*
X170240000Y-61940000D02*
X170240000Y-49820000D01*
X119260000Y-64940000D02*
X170300000Y-64940000D01*
X119320000Y-49820000D02*
X119320000Y-54880000D01*
X119260000Y-46820000D02*
X119260000Y-64940000D01*
X170240000Y-49820000D02*
X119320000Y-49820000D01*
X170300000Y-46820000D02*
X119260000Y-46820000D01*
X170300000Y-64940000D02*
X170300000Y-46820000D01*
X119320000Y-56880000D02*
X119320000Y-61940000D01*
X119320000Y-56880000D02*
G75*
G03*
X119320000Y-54880000I0J1000000D01*
G01*
%TO.C,R2*%
X183920000Y-36830000D02*
X184690000Y-36830000D01*
X191230000Y-38200000D02*
X191230000Y-35460000D01*
X192000000Y-36830000D02*
X191230000Y-36830000D01*
X184690000Y-38200000D02*
X191230000Y-38200000D01*
X191230000Y-35460000D02*
X184690000Y-35460000D01*
X184690000Y-35460000D02*
X184690000Y-38200000D01*
%TO.C,D5*%
X208280000Y-96800000D02*
X208280000Y-95620000D01*
X209200000Y-95620000D02*
X209200000Y-92340000D01*
X207360000Y-92340000D02*
X207360000Y-95620000D01*
X207360000Y-95620000D02*
X209200000Y-95620000D01*
X209200000Y-92340000D02*
X207360000Y-92340000D01*
X208280000Y-91160000D02*
X208280000Y-92340000D01*
X207360000Y-95044000D02*
X209200000Y-95044000D01*
X207360000Y-95164000D02*
X209200000Y-95164000D01*
X207360000Y-94924000D02*
X209200000Y-94924000D01*
%TO.C,D6*%
X205740000Y-96805000D02*
X205740000Y-95625000D01*
X204820000Y-92345000D02*
X204820000Y-95625000D01*
X204820000Y-94929000D02*
X206660000Y-94929000D01*
X204820000Y-95169000D02*
X206660000Y-95169000D01*
X206660000Y-92345000D02*
X204820000Y-92345000D01*
X204820000Y-95049000D02*
X206660000Y-95049000D01*
X204820000Y-95625000D02*
X206660000Y-95625000D01*
X205740000Y-91165000D02*
X205740000Y-92345000D01*
X206660000Y-95625000D02*
X206660000Y-92345000D01*
%TO.C,Q1*%
X178865000Y-121320000D02*
X178865000Y-117470000D01*
X178287045Y-121702631D02*
G75*
G03*
X178865000Y-121320000I-1122045J2322631D01*
G01*
X178865000Y-117470000D02*
G75*
G03*
X178277264Y-117077617I-1700000J-1910000D01*
G01*
X176066193Y-117023600D02*
G75*
G03*
X174565000Y-119380000I1098807J-2356400D01*
G01*
X174565000Y-119380000D02*
G75*
G03*
X176066193Y-121736400I2600000J0D01*
G01*
%TO.C,D2*%
X186340000Y-104226000D02*
X184500000Y-104226000D01*
X186340000Y-104346000D02*
X184500000Y-104346000D01*
X186340000Y-107050000D02*
X186340000Y-103770000D01*
X184500000Y-107050000D02*
X186340000Y-107050000D01*
X184500000Y-103770000D02*
X184500000Y-107050000D01*
X186340000Y-103770000D02*
X184500000Y-103770000D01*
X185420000Y-108230000D02*
X185420000Y-107050000D01*
X185420000Y-102590000D02*
X185420000Y-103770000D01*
X186340000Y-104466000D02*
X184500000Y-104466000D01*
%TO.C,C6*%
X116740000Y-88765000D02*
X116740000Y-83525000D01*
X119480000Y-88765000D02*
X119480000Y-83525000D01*
X116740000Y-88765000D02*
X117055000Y-88765000D01*
X119165000Y-88765000D02*
X119480000Y-88765000D01*
X119165000Y-83525000D02*
X119480000Y-83525000D01*
X116740000Y-83525000D02*
X117055000Y-83525000D01*
%TO.C,U4*%
X171570000Y-77300000D02*
X120530000Y-77300000D01*
X171570000Y-95420000D02*
X171570000Y-77300000D01*
X120590000Y-87360000D02*
X120590000Y-92420000D01*
X120530000Y-95420000D02*
X171570000Y-95420000D01*
X120590000Y-80300000D02*
X120590000Y-85360000D01*
X120530000Y-77300000D02*
X120530000Y-95420000D01*
X171510000Y-80300000D02*
X120590000Y-80300000D01*
X171510000Y-92420000D02*
X171510000Y-80300000D01*
X120590000Y-92420000D02*
X171510000Y-92420000D01*
X120590000Y-87360000D02*
G75*
G03*
X120590000Y-85360000I0J1000000D01*
G01*
%TO.C,U6*%
X181545000Y-63200000D02*
X199445000Y-63200000D01*
X199505000Y-66200000D02*
X199505000Y-55700000D01*
X199445000Y-63200000D02*
X199445000Y-58700000D01*
X181485000Y-55700000D02*
X181485000Y-66200000D01*
X181485000Y-66200000D02*
X199505000Y-66200000D01*
X181545000Y-58700000D02*
X181545000Y-59950000D01*
X199505000Y-55700000D02*
X181485000Y-55700000D01*
X181545000Y-61950000D02*
X181545000Y-63200000D01*
X199445000Y-58700000D02*
X181545000Y-58700000D01*
X181545000Y-61950000D02*
G75*
G03*
X181545000Y-59950000I0J1000000D01*
G01*
%TO.C,C5*%
X177585000Y-59810000D02*
X177900000Y-59810000D01*
X177900000Y-59810000D02*
X177900000Y-54570000D01*
X177585000Y-54570000D02*
X177900000Y-54570000D01*
X175160000Y-59810000D02*
X175160000Y-54570000D01*
X175160000Y-54570000D02*
X175475000Y-54570000D01*
X175160000Y-59810000D02*
X175475000Y-59810000D01*
%TO.C,U10*%
X181545000Y-43460000D02*
X181545000Y-44710000D01*
X181545000Y-47960000D02*
X199445000Y-47960000D01*
X181485000Y-50960000D02*
X199505000Y-50960000D01*
X199505000Y-50960000D02*
X199505000Y-40460000D01*
X199445000Y-47960000D02*
X199445000Y-43460000D01*
X181545000Y-46710000D02*
X181545000Y-47960000D01*
X181485000Y-40460000D02*
X181485000Y-50960000D01*
X199445000Y-43460000D02*
X181545000Y-43460000D01*
X199505000Y-40460000D02*
X181485000Y-40460000D01*
X181545000Y-46710000D02*
G75*
G03*
X181545000Y-44710000I0J1000000D01*
G01*
%TO.C,D1*%
X181960000Y-107045000D02*
X183800000Y-107045000D01*
X181960000Y-103765000D02*
X181960000Y-107045000D01*
X182880000Y-108225000D02*
X182880000Y-107045000D01*
X182880000Y-102585000D02*
X182880000Y-103765000D01*
X183800000Y-104461000D02*
X181960000Y-104461000D01*
X183800000Y-104341000D02*
X181960000Y-104341000D01*
X183800000Y-104221000D02*
X181960000Y-104221000D01*
X183800000Y-103765000D02*
X181960000Y-103765000D01*
X183800000Y-107045000D02*
X183800000Y-103765000D01*
%TO.C,C3*%
X175475000Y-96640000D02*
X175160000Y-96640000D01*
X177900000Y-96640000D02*
X177585000Y-96640000D01*
X177900000Y-91400000D02*
X177585000Y-91400000D01*
X177900000Y-91400000D02*
X177900000Y-96640000D01*
X175475000Y-91400000D02*
X175160000Y-91400000D01*
X175160000Y-91400000D02*
X175160000Y-96640000D01*
%TO.C,C4*%
X114200000Y-59835000D02*
X114515000Y-59835000D01*
X116625000Y-54595000D02*
X116940000Y-54595000D01*
X114200000Y-54595000D02*
X114515000Y-54595000D01*
X116940000Y-59835000D02*
X116940000Y-54595000D01*
X116625000Y-59835000D02*
X116940000Y-59835000D01*
X114200000Y-59835000D02*
X114200000Y-54595000D01*
%TO.C,U8*%
X156270000Y-125440000D02*
X156270000Y-113320000D01*
X120530000Y-110320000D02*
X120530000Y-128440000D01*
X156270000Y-113320000D02*
X120590000Y-113320000D01*
X120530000Y-128440000D02*
X156330000Y-128440000D01*
X120590000Y-113320000D02*
X120590000Y-118380000D01*
X156330000Y-128440000D02*
X156330000Y-110320000D01*
X156330000Y-110320000D02*
X120530000Y-110320000D01*
X120590000Y-125440000D02*
X156270000Y-125440000D01*
X120590000Y-120380000D02*
X120590000Y-125440000D01*
X120590000Y-120380000D02*
G75*
G03*
X120590000Y-118380000I0J1000000D01*
G01*
%TO.C,RN1*%
X123190000Y-73784000D02*
X123190000Y-76584000D01*
X120480000Y-73784000D02*
X120480000Y-76584000D01*
X138600000Y-76584000D02*
X138600000Y-73784000D01*
X138600000Y-73784000D02*
X120480000Y-73784000D01*
X120480000Y-76584000D02*
X138600000Y-76584000D01*
%TO.C,U9*%
X201980000Y-96215000D02*
X201980000Y-91715000D01*
X202040000Y-88715000D02*
X181480000Y-88715000D01*
X181540000Y-96215000D02*
X201980000Y-96215000D01*
X181540000Y-94965000D02*
X181540000Y-96215000D01*
X202040000Y-99215000D02*
X202040000Y-88715000D01*
X181480000Y-88715000D02*
X181480000Y-99215000D01*
X201980000Y-91715000D02*
X181540000Y-91715000D01*
X181540000Y-91715000D02*
X181540000Y-92965000D01*
X181480000Y-99215000D02*
X202040000Y-99215000D01*
X181540000Y-94965000D02*
G75*
G03*
X181540000Y-92965000I0J1000000D01*
G01*
%TO.C,D4*%
X190500000Y-108225000D02*
X190500000Y-107045000D01*
X191420000Y-104341000D02*
X189580000Y-104341000D01*
X191420000Y-104461000D02*
X189580000Y-104461000D01*
X189580000Y-103765000D02*
X189580000Y-107045000D01*
X191420000Y-103765000D02*
X189580000Y-103765000D01*
X191420000Y-107045000D02*
X191420000Y-103765000D01*
X190500000Y-102585000D02*
X190500000Y-103765000D01*
X189580000Y-107045000D02*
X191420000Y-107045000D01*
X191420000Y-104221000D02*
X189580000Y-104221000D01*
%TO.C,C2*%
X163095000Y-122040000D02*
X163410000Y-122040000D01*
X165520000Y-116800000D02*
X165835000Y-116800000D01*
X165520000Y-122040000D02*
X165835000Y-122040000D01*
X163095000Y-122040000D02*
X163095000Y-116800000D01*
X165835000Y-122040000D02*
X165835000Y-116800000D01*
X163095000Y-116800000D02*
X163410000Y-116800000D01*
%TO.C,D3*%
X188880000Y-103765000D02*
X187040000Y-103765000D01*
X188880000Y-104461000D02*
X187040000Y-104461000D01*
X187040000Y-103765000D02*
X187040000Y-107045000D01*
X188880000Y-107045000D02*
X188880000Y-103765000D01*
X187960000Y-108225000D02*
X187960000Y-107045000D01*
X188880000Y-104341000D02*
X187040000Y-104341000D01*
X188880000Y-104221000D02*
X187040000Y-104221000D01*
X187960000Y-102585000D02*
X187960000Y-103765000D01*
X187040000Y-107045000D02*
X188880000Y-107045000D01*
%TO.C,R1*%
X172185000Y-116110000D02*
X169445000Y-116110000D01*
X170815000Y-115340000D02*
X170815000Y-116110000D01*
X169445000Y-116110000D02*
X169445000Y-122650000D01*
X169445000Y-122650000D02*
X172185000Y-122650000D01*
X172185000Y-122650000D02*
X172185000Y-116110000D01*
X170815000Y-123420000D02*
X170815000Y-122650000D01*
%TO.C,U7*%
X199505000Y-72210000D02*
X181485000Y-72210000D01*
X181545000Y-75210000D02*
X181545000Y-76460000D01*
X181545000Y-78460000D02*
X181545000Y-79710000D01*
X181545000Y-79710000D02*
X199445000Y-79710000D01*
X181485000Y-82710000D02*
X199505000Y-82710000D01*
X199505000Y-82710000D02*
X199505000Y-72210000D01*
X199445000Y-75210000D02*
X181545000Y-75210000D01*
X181485000Y-72210000D02*
X181485000Y-82710000D01*
X199445000Y-79710000D02*
X199445000Y-75210000D01*
X181545000Y-78460000D02*
G75*
G03*
X181545000Y-76460000I0J1000000D01*
G01*
%TD*%
M02*
