%TF.GenerationSoftware,KiCad,Pcbnew,6.0.4+dfsg-1*%
%TF.CreationDate,2022-04-12T11:54:30+09:30*%
%TF.ProjectId,6530 to 6532 adaptor,36353330-2074-46f2-9036-353332206164,rev?*%
%TF.SameCoordinates,Original*%
%TF.FileFunction,Legend,Bot*%
%TF.FilePolarity,Positive*%
%FSLAX46Y46*%
G04 Gerber Fmt 4.6, Leading zero omitted, Abs format (unit mm)*
G04 Created by KiCad (PCBNEW 6.0.4+dfsg-1) date 2022-04-12 11:54:30*
%MOMM*%
%LPD*%
G01*
G04 APERTURE LIST*
%ADD10C,0.150000*%
%ADD11C,0.120000*%
G04 APERTURE END LIST*
D10*
%TO.C,J5*%
X171952380Y-86021666D02*
X172666666Y-86021666D01*
X172809523Y-85974047D01*
X172904761Y-85878809D01*
X172952380Y-85735952D01*
X172952380Y-85640714D01*
X171952380Y-86974047D02*
X171952380Y-86497857D01*
X172428571Y-86450238D01*
X172380952Y-86497857D01*
X172333333Y-86593095D01*
X172333333Y-86831190D01*
X172380952Y-86926428D01*
X172428571Y-86974047D01*
X172523809Y-87021666D01*
X172761904Y-87021666D01*
X172857142Y-86974047D01*
X172904761Y-86926428D01*
X172952380Y-86831190D01*
X172952380Y-86593095D01*
X172904761Y-86497857D01*
X172857142Y-86450238D01*
%TO.C,J1*%
X117772380Y-70786666D02*
X118486666Y-70786666D01*
X118629523Y-70739047D01*
X118724761Y-70643809D01*
X118772380Y-70500952D01*
X118772380Y-70405714D01*
X118772380Y-71786666D02*
X118772380Y-71215238D01*
X118772380Y-71500952D02*
X117772380Y-71500952D01*
X117915238Y-71405714D01*
X118010476Y-71310476D01*
X118058095Y-71215238D01*
%TO.C,J2*%
X170692380Y-55546666D02*
X171406666Y-55546666D01*
X171549523Y-55499047D01*
X171644761Y-55403809D01*
X171692380Y-55260952D01*
X171692380Y-55165714D01*
X170787619Y-55975238D02*
X170740000Y-56022857D01*
X170692380Y-56118095D01*
X170692380Y-56356190D01*
X170740000Y-56451428D01*
X170787619Y-56499047D01*
X170882857Y-56546666D01*
X170978095Y-56546666D01*
X171120952Y-56499047D01*
X171692380Y-55927619D01*
X171692380Y-56546666D01*
%TO.C,J3*%
X116502380Y-40306666D02*
X117216666Y-40306666D01*
X117359523Y-40259047D01*
X117454761Y-40163809D01*
X117502380Y-40020952D01*
X117502380Y-39925714D01*
X116502380Y-40687619D02*
X116502380Y-41306666D01*
X116883333Y-40973333D01*
X116883333Y-41116190D01*
X116930952Y-41211428D01*
X116978571Y-41259047D01*
X117073809Y-41306666D01*
X117311904Y-41306666D01*
X117407142Y-41259047D01*
X117454761Y-41211428D01*
X117502380Y-41116190D01*
X117502380Y-40830476D01*
X117454761Y-40735238D01*
X117407142Y-40687619D01*
%TO.C,J4*%
X119042380Y-101266666D02*
X119756666Y-101266666D01*
X119899523Y-101219047D01*
X119994761Y-101123809D01*
X120042380Y-100980952D01*
X120042380Y-100885714D01*
X119375714Y-102171428D02*
X120042380Y-102171428D01*
X118994761Y-101933333D02*
X119709047Y-101695238D01*
X119709047Y-102314285D01*
D11*
%TO.C,J5*%
X120580000Y-87685000D02*
X120580000Y-85025000D01*
X170170000Y-87685000D02*
X171500000Y-87685000D01*
X168900000Y-87685000D02*
X168900000Y-85025000D01*
X168900000Y-85025000D02*
X120580000Y-85025000D01*
X168900000Y-87685000D02*
X120580000Y-87685000D01*
X171500000Y-87685000D02*
X171500000Y-86355000D01*
%TO.C,J1*%
X121920000Y-72450000D02*
X170240000Y-72450000D01*
X170240000Y-69790000D02*
X170240000Y-72450000D01*
X119320000Y-69790000D02*
X119320000Y-71120000D01*
X121920000Y-69790000D02*
X170240000Y-69790000D01*
X121920000Y-69790000D02*
X121920000Y-72450000D01*
X120650000Y-69790000D02*
X119320000Y-69790000D01*
%TO.C,J2*%
X167640000Y-54550000D02*
X119320000Y-54550000D01*
X168910000Y-57210000D02*
X170240000Y-57210000D01*
X167640000Y-57210000D02*
X167640000Y-54550000D01*
X167640000Y-57210000D02*
X119320000Y-57210000D01*
X119320000Y-57210000D02*
X119320000Y-54550000D01*
X170240000Y-57210000D02*
X170240000Y-55880000D01*
%TO.C,J3*%
X120650000Y-39310000D02*
X120650000Y-41970000D01*
X119380000Y-39310000D02*
X118050000Y-39310000D01*
X120650000Y-39310000D02*
X168970000Y-39310000D01*
X168970000Y-39310000D02*
X168970000Y-41970000D01*
X120650000Y-41970000D02*
X168970000Y-41970000D01*
X118050000Y-39310000D02*
X118050000Y-40640000D01*
%TO.C,J4*%
X121920000Y-100270000D02*
X120590000Y-100270000D01*
X123190000Y-100270000D02*
X171510000Y-100270000D01*
X171510000Y-100270000D02*
X171510000Y-102930000D01*
X123190000Y-102930000D02*
X171510000Y-102930000D01*
X123190000Y-100270000D02*
X123190000Y-102930000D01*
X120590000Y-100270000D02*
X120590000Y-101600000D01*
%TD*%
M02*
